<svg width="403" height="280" viewBox="0 0 403 280" fill="none" xmlns="http://www.w3.org/2000/svg">
<g filter="url(#filter0_b_198_161)">
<rect y="34.6191" width="382" height="246" rx="20" transform="rotate(-5.1996 0 34.6191)" fill="url(#paint0_linear_198_161)"/>
<rect x="1.08651" y="35.5244" width="380" height="244" rx="19" transform="rotate(-5.1996 1.08651 35.5244)" stroke="url(#paint1_linear_198_161)" stroke-width="2"/>
</g>
<g filter="url(#filter1_b_198_161)">
<rect x="319" y="197.293" width="47.3669" height="30.5033" rx="15.2517" transform="rotate(-5.1996 319 197.293)" fill="white"/>
<rect x="320.087" y="198.198" width="45.3669" height="28.5033" rx="14.2517" transform="rotate(-5.1996 320.087 198.198)" stroke="url(#paint2_linear_198_161)" stroke-width="2"/>
</g>
<rect x="306.087" y="199.198" width="45.3669" height="28.5033" rx="14.2517" transform="rotate(-5.1996 306.087 199.198)" fill="url(#paint3_linear_198_161)" stroke="url(#paint4_linear_198_161)" stroke-width="2"/>
<g filter="url(#filter2_b_198_161)">
<rect x="37" y="66.6455" width="73.3262" height="47.2205" rx="5" transform="rotate(-5.2 37 66.6455)" fill="#FECC36"/>
</g>
<path d="M49.6303 168.446L48.3593 169.486C48.7202 170.069 49.1645 170.611 49.6921 171.112C50.2317 171.598 50.8353 171.978 51.5029 172.252C52.1826 172.512 52.9008 172.607 53.6577 172.538C54.2154 172.487 54.7381 172.346 55.2257 172.114C55.7267 171.881 56.1606 171.574 56.5276 171.192C56.9078 170.81 57.1884 170.362 57.3694 169.851C57.5637 169.337 57.6331 168.776 57.5775 168.165C57.5195 167.527 57.3571 166.993 57.0902 166.562C56.8222 166.118 56.4944 165.753 56.1069 165.467C55.7315 165.166 55.3283 164.929 54.8973 164.754C54.4663 164.579 54.0589 164.442 53.675 164.343C52.8397 164.138 52.1703 163.917 51.6669 163.682C51.1755 163.432 50.8158 163.157 50.5876 162.856C50.3582 162.543 50.226 162.193 50.191 161.808C50.1499 161.357 50.2856 160.936 50.5982 160.546C50.9096 160.143 51.4438 159.907 52.2007 159.838C52.7451 159.788 53.2128 159.853 53.604 160.031C54.0084 160.209 54.3585 160.451 54.6543 160.759C54.95 161.067 55.2 161.386 55.404 161.715L56.7819 160.746C56.5114 160.276 56.1571 159.839 55.7188 159.437C55.2794 159.022 54.7615 158.701 54.1651 158.474C53.5809 158.233 52.9103 158.146 52.1534 158.215C51.37 158.287 50.6874 158.509 50.1056 158.884C49.5226 159.245 49.0832 159.713 48.7875 160.289C48.4918 160.865 48.3754 161.498 48.4382 162.188C48.4962 162.826 48.6647 163.353 48.9436 163.769C49.2357 164.184 49.5882 164.527 50.0011 164.798C50.4128 165.055 50.8401 165.263 51.2832 165.424C51.725 165.571 52.124 165.689 52.4801 165.777C53.0281 165.914 53.5454 166.082 54.0319 166.278C54.5305 166.461 54.9427 166.724 55.2687 167.069C55.5947 167.415 55.7861 167.899 55.8428 168.523C55.9009 169.161 55.7229 169.706 55.3088 170.159C54.8948 170.611 54.316 170.871 53.5724 170.939C53.0148 170.99 52.5059 170.916 52.046 170.717C51.5861 170.517 51.1575 170.222 50.7603 169.829C50.3764 169.436 49.9997 168.975 49.6303 168.446ZM58.081 162.697L58.2169 164.19L62.798 163.773L62.6621 162.28L58.081 162.697ZM59.2848 159.374L60.4086 171.723L62.0021 171.578L60.8782 159.229L59.2848 159.374ZM65.5536 168.403C65.5234 168.071 65.5771 167.778 65.7147 167.525C65.8523 167.271 66.0744 167.063 66.381 166.902C66.7008 166.739 67.1197 166.634 67.6376 166.586C68.1953 166.536 68.7264 166.561 69.231 166.662C69.7344 166.75 70.2329 166.933 70.7267 167.209L70.6415 166.273C70.5377 166.162 70.3445 166.025 70.062 165.864C69.7783 165.689 69.4041 165.549 68.9393 165.444C68.4867 165.324 67.9284 165.295 67.2644 165.355C66.1358 165.458 65.2775 165.81 64.6897 166.413C64.1139 167.001 63.8666 167.74 63.9475 168.629C64.0043 169.253 64.1987 169.771 64.5307 170.183C64.8627 170.594 65.2786 170.898 65.7784 171.093C66.2902 171.275 66.825 171.34 67.3827 171.289C67.8873 171.243 68.3834 171.104 68.8711 170.872C69.372 170.639 69.7776 170.315 70.0878 169.898C70.4112 169.48 70.5464 168.979 70.4932 168.395L70.0658 167.229C70.1093 167.707 70.0285 168.143 69.8233 168.536C69.6302 168.915 69.3435 169.223 68.9633 169.458C68.5963 169.692 68.1672 169.832 67.6759 169.877C67.2908 169.912 66.9401 169.883 66.6239 169.792C66.3197 169.685 66.0698 169.514 65.8742 169.277C65.6919 169.04 65.585 168.748 65.5536 168.403ZM64.9303 164.202C65.0667 164.082 65.2544 163.938 65.4934 163.769C65.7324 163.6 66.0263 163.446 66.3752 163.307C66.7373 163.167 67.1441 163.077 67.5956 163.036C67.8744 163.01 68.1424 163.013 68.3995 163.043C68.6566 163.073 68.8836 163.139 69.0804 163.242C69.2904 163.343 69.4582 163.495 69.5838 163.698C69.7081 163.888 69.7848 164.142 69.8138 164.46L70.3921 170.814L71.9855 170.669L71.3873 164.096C71.3329 163.499 71.1343 163.008 70.7914 162.624C70.4618 162.239 70.0152 161.965 69.4514 161.802C68.8997 161.625 68.2654 161.569 67.5483 161.634C66.6985 161.711 65.9797 161.904 65.3918 162.212C64.8173 162.519 64.3688 162.814 64.0466 163.098L64.9303 164.202ZM74.9834 165.777C74.9254 165.14 75.0068 164.564 75.2276 164.048C75.4606 163.518 75.7967 163.093 76.2361 162.771C76.6887 162.449 77.2138 162.261 77.8114 162.206C78.3027 162.162 78.768 162.2 79.2074 162.32C79.6589 162.426 80.0555 162.591 80.3971 162.814C80.7388 163.038 80.9899 163.296 81.1504 163.589L80.9692 161.598C80.6167 161.255 80.1326 161.011 79.5169 160.866C78.9133 160.707 78.2995 160.656 77.6754 160.713C76.7857 160.793 76.0011 161.072 75.3216 161.549C74.642 162.026 74.1224 162.642 73.7627 163.398C73.4163 164.153 73.2854 164.995 73.37 165.924C73.4534 166.84 73.7342 167.645 74.2122 168.338C74.7024 169.016 75.3247 169.529 76.0792 169.875C76.8337 170.221 77.6558 170.354 78.5455 170.273C79.1696 170.216 79.7647 170.062 80.3308 169.809C80.909 169.542 81.3405 169.209 81.6254 168.808L81.4441 166.816C81.3379 167.12 81.1375 167.42 80.843 167.714C80.5473 167.996 80.1876 168.236 79.7639 168.435C79.3523 168.62 78.9008 168.734 78.4095 168.779C77.812 168.834 77.2615 168.743 76.7581 168.508C76.2668 168.258 75.8594 167.9 75.5358 167.434C75.2255 166.967 75.0414 166.415 74.9834 165.777ZM82.6813 154.031L84.0951 169.567L85.6885 169.422L84.2747 153.886L82.6813 154.031ZM88.2407 159.952L84.6016 164.099L89.4729 169.078L91.4647 168.896L86.5934 163.917L90.2325 159.771L88.2407 159.952ZM97.7692 154.265L99.0381 168.207L106.208 167.555L106.063 165.961L100.586 166.46L99.4622 154.111L97.7692 154.265ZM111.469 167.277C112.451 167.187 113.284 166.917 113.966 166.467C114.66 166.002 115.211 165.363 115.619 164.549L114.25 163.851C113.969 164.439 113.602 164.894 113.149 165.216C112.695 165.525 112.156 165.708 111.532 165.765C110.908 165.822 110.365 165.737 109.902 165.511C109.44 165.286 109.073 164.931 108.801 164.447C108.53 163.963 108.361 163.362 108.296 162.645C108.245 161.94 108.311 161.339 108.493 160.84C108.687 160.327 108.986 159.925 109.388 159.634C109.802 159.328 110.314 159.148 110.925 159.092C111.443 159.045 111.904 159.117 112.31 159.308C112.716 159.498 113.043 159.783 113.291 160.162C113.553 160.54 113.709 161.001 113.759 161.546C113.767 161.639 113.758 161.76 113.732 161.91C113.704 162.046 113.673 162.149 113.639 162.219L114.193 161.245L107.62 161.843L107.744 163.198L115.571 162.485C115.569 162.459 115.564 162.399 115.555 162.306C115.559 162.199 115.556 162.098 115.548 162.005C115.46 161.036 115.211 160.215 114.802 159.543C114.392 158.871 113.845 158.378 113.161 158.065C112.489 157.738 111.701 157.616 110.798 157.698C109.895 157.78 109.116 158.052 108.462 158.513C107.821 158.973 107.341 159.579 107.021 160.331C106.714 161.082 106.605 161.936 106.692 162.892C106.777 163.834 107.032 164.648 107.456 165.332C107.893 166.016 108.456 166.533 109.144 166.886C109.844 167.224 110.619 167.354 111.469 167.277ZM118.616 163.574C118.585 163.242 118.639 162.949 118.777 162.696C118.914 162.442 119.136 162.234 119.443 162.073C119.763 161.91 120.182 161.805 120.7 161.757C121.257 161.707 121.788 161.732 122.293 161.833C122.796 161.921 123.295 162.104 123.789 162.38L123.703 161.444C123.6 161.333 123.406 161.196 123.124 161.035C122.84 160.86 122.466 160.72 122.001 160.615C121.549 160.495 120.99 160.466 120.326 160.526C119.198 160.629 118.339 160.981 117.752 161.584C117.176 162.172 116.929 162.911 117.009 163.8C117.066 164.424 117.261 164.942 117.593 165.354C117.925 165.765 118.341 166.069 118.84 166.264C119.352 166.446 119.887 166.511 120.445 166.46C120.949 166.414 121.445 166.275 121.933 166.043C122.434 165.81 122.84 165.485 123.15 165.069C123.473 164.651 123.608 164.15 123.555 163.566L123.128 162.4C123.171 162.878 123.09 163.314 122.885 163.707C122.692 164.086 122.405 164.394 122.025 164.629C121.658 164.863 121.229 165.003 120.738 165.047C120.353 165.083 120.002 165.054 119.686 164.962C119.382 164.856 119.132 164.685 118.936 164.448C118.754 164.211 118.647 163.919 118.616 163.574ZM117.992 159.373C118.129 159.253 118.316 159.109 118.555 158.94C118.794 158.771 119.088 158.617 119.437 158.478C119.799 158.338 120.206 158.248 120.658 158.207C120.936 158.181 121.204 158.184 121.461 158.214C121.719 158.244 121.946 158.31 122.142 158.413C122.352 158.514 122.52 158.666 122.646 158.869C122.77 159.059 122.847 159.313 122.876 159.631L123.454 165.985L125.047 165.84L124.449 159.267C124.395 158.67 124.196 158.179 123.853 157.795C123.524 157.41 123.077 157.136 122.513 156.973C121.962 156.796 121.327 156.74 120.61 156.805C119.76 156.882 119.042 157.075 118.454 157.383C117.879 157.69 117.431 157.985 117.109 158.269L117.992 159.373ZM128.505 156.288L126.911 156.433L127.745 165.595L129.339 165.45L128.505 156.288ZM131.433 157.788L132.19 156.394C131.928 156.163 131.647 156.022 131.348 155.969C131.06 155.901 130.751 155.882 130.419 155.913C129.994 155.951 129.591 156.155 129.209 156.525C128.828 156.894 128.53 157.376 128.317 157.971C128.115 158.552 128.048 159.208 128.114 159.938L128.831 159.873C128.791 159.434 128.795 159.039 128.844 158.687C128.905 158.333 129.04 158.046 129.247 157.827C129.455 157.607 129.758 157.479 130.156 157.443C130.422 157.418 130.645 157.438 130.824 157.502C131.003 157.553 131.206 157.648 131.433 157.788ZM139.941 158.862L140.448 164.439L142.042 164.294L141.516 158.517C141.416 157.415 141.051 156.572 140.422 155.986C139.805 155.386 139.012 155.13 138.043 155.219C137.445 155.273 136.926 155.454 136.485 155.762C136.058 156.069 135.717 156.515 135.463 157.1L135.332 155.666L133.739 155.811L134.572 164.973L136.166 164.828L135.658 159.251C135.617 158.8 135.674 158.393 135.828 158.031C135.996 157.668 136.244 157.377 136.573 157.16C136.913 156.928 137.315 156.791 137.78 156.749C138.418 156.691 138.92 156.839 139.287 157.194C139.654 157.549 139.872 158.105 139.941 158.862Z" fill="#454545"/>
<path d="M59.9453 182.312L56.9038 187.73L52.9342 182.95L50.0661 183.211L55.7162 189.862L51.0815 197.899L53.9497 197.638L57.2692 191.745L61.598 196.942L64.4662 196.681L58.4568 189.613L62.8134 182.051L59.9453 182.312ZM74.2922 181.006L71.2507 186.424L67.2812 181.644L64.413 181.905L70.0631 188.556L65.4285 196.593L68.2966 196.332L71.6162 190.439L75.945 195.636L78.8132 195.375L72.8038 188.307L77.1604 180.745L74.2922 181.006ZM88.6392 179.7L85.5977 185.118L81.6281 180.338L78.76 180.599L84.4101 187.251L79.7754 195.288L82.6436 195.027L85.9631 189.134L90.292 194.331L93.1601 194.07L87.1507 187.001L91.5073 179.439L88.6392 179.7ZM97.0339 192.432C97.0764 192.899 97.2841 193.298 97.6569 193.628C98.049 193.935 98.4787 194.068 98.9461 194.025C99.4348 193.981 99.8336 193.773 100.143 193.402C100.45 193.01 100.582 192.58 100.539 192.113C100.495 191.624 100.287 191.225 99.9164 190.916C99.5455 190.607 99.1158 190.475 98.6271 190.52C98.1597 190.562 97.7609 190.77 97.4306 191.143C97.1217 191.513 96.9894 191.943 97.0339 192.432ZM112.54 177.525L109.499 182.943L105.529 178.163L102.661 178.424L108.311 185.075L103.677 193.113L106.545 192.852L109.864 186.958L114.193 192.156L117.061 191.894L111.052 184.826L115.409 177.264L112.54 177.525ZM126.887 176.219L123.846 181.637L119.876 176.857L117.008 177.119L122.658 183.77L118.024 191.807L120.892 191.546L124.211 185.653L128.54 190.85L131.408 190.589L125.399 183.52L129.756 175.958L126.887 176.219ZM141.234 174.914L138.193 180.332L134.223 175.552L131.355 175.813L137.005 182.464L132.371 190.501L135.239 190.24L138.558 184.347L142.887 189.544L145.755 189.283L139.746 182.215L144.102 174.653L141.234 174.914ZM149.629 187.645C149.672 188.113 149.879 188.512 150.252 188.842C150.644 189.149 151.074 189.281 151.541 189.239C152.03 189.194 152.429 188.986 152.738 188.616C153.045 188.223 153.177 187.794 153.135 187.326C153.09 186.838 152.882 186.439 152.512 186.13C152.141 185.821 151.711 185.689 151.222 185.733C150.755 185.776 150.356 185.983 150.026 186.356C149.717 186.727 149.585 187.157 149.629 187.645ZM165.136 172.739L162.094 178.157L158.125 173.377L155.256 173.638L160.906 180.289L156.272 188.326L159.14 188.065L162.459 182.172L166.788 187.369L169.656 187.108L163.647 180.04L168.004 172.478L165.136 172.739ZM179.482 171.433L176.441 176.851L172.471 172.071L169.603 172.332L175.253 178.983L170.619 187.02L173.487 186.759L176.806 180.866L181.135 186.063L184.003 185.802L177.994 178.734L182.351 171.172L179.482 171.433ZM193.829 170.127L190.788 175.545L186.818 170.765L183.95 171.026L189.6 177.678L184.966 185.715L187.834 185.454L191.153 179.561L195.482 184.758L198.35 184.497L192.341 177.428L196.698 169.866L193.829 170.127ZM202.224 182.859C202.267 183.326 202.474 183.725 202.847 184.055C203.239 184.362 203.669 184.495 204.136 184.452C204.625 184.408 205.024 184.2 205.333 183.829C205.64 183.437 205.772 183.007 205.73 182.54C205.685 182.051 205.478 181.652 205.107 181.343C204.736 181.034 204.306 180.902 203.817 180.947C203.35 180.989 202.951 181.197 202.621 181.57C202.312 181.94 202.18 182.37 202.224 182.859ZM217.731 167.952L214.689 173.37L210.72 168.59L207.852 168.851L213.502 175.502L208.867 183.54L211.735 183.279L215.055 177.385L219.383 182.582L222.252 182.321L216.242 175.253L220.599 167.691L217.731 167.952ZM232.078 166.646L229.036 172.064L225.067 167.284L222.198 167.545L227.849 174.197L223.214 182.234L226.082 181.973L229.402 176.08L233.73 181.277L236.599 181.016L230.589 173.947L234.946 166.385L232.078 166.646Z" fill="#715AFF"/>
<defs>
<filter id="filter0_b_198_161" x="-38.271" y="-38.271" width="479.264" height="356.149" filterUnits="userSpaceOnUse" color-interpolation-filters="sRGB">
<feFlood flood-opacity="0" result="BackgroundImageFix"/>
<feGaussianBlur in="BackgroundImageFix" stdDeviation="20"/>
<feComposite in2="SourceAlpha" operator="in" result="effect1_backgroundBlur_198_161"/>
<feBlend mode="normal" in="SourceGraphic" in2="effect1_backgroundBlur_198_161" result="shape"/>
</filter>
<filter id="filter1_b_198_161" x="280.318" y="154.319" width="127.3" height="112.034" filterUnits="userSpaceOnUse" color-interpolation-filters="sRGB">
<feFlood flood-opacity="0" result="BackgroundImageFix"/>
<feGaussianBlur in="BackgroundImageFix" stdDeviation="20"/>
<feComposite in2="SourceAlpha" operator="in" result="effect1_backgroundBlur_198_161"/>
<feBlend mode="normal" in="SourceGraphic" in2="effect1_backgroundBlur_198_161" result="shape"/>
</filter>
<filter id="filter2_b_198_161" x="-2.56787" y="20.4321" width="156.44" height="132.807" filterUnits="userSpaceOnUse" color-interpolation-filters="sRGB">
<feFlood flood-opacity="0" result="BackgroundImageFix"/>
<feGaussianBlur in="BackgroundImageFix" stdDeviation="20"/>
<feComposite in2="SourceAlpha" operator="in" result="effect1_backgroundBlur_198_161"/>
<feBlend mode="normal" in="SourceGraphic" in2="effect1_backgroundBlur_198_161" result="shape"/>
</filter>
<linearGradient id="paint0_linear_198_161" x1="301.566" y1="251.723" x2="98.9211" y2="34.4644" gradientUnits="userSpaceOnUse">
<stop stop-color="white" stop-opacity="0.7"/>
<stop offset="1" stop-color="white" stop-opacity="0.4"/>
</linearGradient>
<linearGradient id="paint1_linear_198_161" x1="191" y1="34.6191" x2="191" y2="280.619" gradientUnits="userSpaceOnUse">
<stop stop-color="#70D7C7"/>
<stop offset="1" stop-color="#FFCB34"/>
</linearGradient>
<linearGradient id="paint2_linear_198_161" x1="342.683" y1="197.293" x2="342.683" y2="227.796" gradientUnits="userSpaceOnUse">
<stop stop-color="#70D7C7"/>
<stop offset="1" stop-color="#FFCB34"/>
</linearGradient>
<linearGradient id="paint3_linear_198_161" x1="342.393" y1="225.213" x2="317.266" y2="198.274" gradientUnits="userSpaceOnUse">
<stop stop-color="white" stop-opacity="0.4"/>
<stop offset="1" stop-color="white" stop-opacity="0.4"/>
</linearGradient>
<linearGradient id="paint4_linear_198_161" x1="328.683" y1="198.293" x2="328.683" y2="228.796" gradientUnits="userSpaceOnUse">
<stop stop-color="#70D7C7"/>
<stop offset="1" stop-color="#FFCB34"/>
</linearGradient>
</defs>
</svg>
