<svg width="336" height="336" viewBox="0 0 336 336" fill="none" xmlns="http://www.w3.org/2000/svg">
<g clip-path="url(#clip0_373_320)">
<circle cx="164.154" cy="165.421" r="179.154" fill="#9C9C9C"/>
<path d="M284.767 332.585C284.767 393.354 253.222 375.963 192.453 375.963C131.684 375.963 60.8242 397.586 60.8242 336.817C60.8242 276.048 100.297 164.716 161.065 164.716C221.834 164.716 284.767 271.816 284.767 332.585Z" fill="black"/>
<circle cx="168.034" cy="119.222" r="63.1273" fill="black"/>
<path d="M165.609 149.024C176.317 152.777 180.763 150.184 186.962 140.399" stroke="white" stroke-width="3" stroke-linecap="round"/>
<ellipse cx="182.493" cy="107.584" rx="7.75866" ry="9.87466" fill="white"/>
<ellipse cx="146.52" cy="110.405" rx="7.75866" ry="9.87466" fill="white"/>
<rect x="262.723" y="253.075" width="114.897" height="92.5278" transform="rotate(76.8584 262.723 253.075)" fill="#70D7C7"/>
<rect x="282.041" y="231.722" width="114.897" height="92.5278" transform="rotate(76.8584 282.041 231.722)" fill="#715AFF"/>
<circle cx="234.965" cy="279.646" r="4.57555" transform="rotate(-10.6729 234.965 279.646)" fill="#454545"/>
<circle cx="247.955" cy="277.198" r="4.57555" transform="rotate(-10.6729 247.955 277.198)" fill="#454545"/>
<circle cx="260.943" cy="274.75" r="4.57555" transform="rotate(-10.6729 260.943 274.75)" fill="#454545"/>
<circle cx="237.414" cy="292.636" r="4.57555" transform="rotate(-10.6729 237.414 292.636)" fill="#454545"/>
<circle cx="250.402" cy="290.188" r="4.57555" transform="rotate(-10.6729 250.402 290.188)" fill="#454545"/>
<circle cx="263.393" cy="287.74" r="4.57555" transform="rotate(-10.6729 263.393 287.74)" fill="#454545"/>
<circle cx="239.861" cy="305.626" r="4.57555" transform="rotate(-10.6729 239.861 305.626)" fill="#454545"/>
<circle cx="252.85" cy="303.177" r="4.57555" transform="rotate(-10.6729 252.85 303.177)" fill="#454545"/>
<circle cx="265.84" cy="300.729" r="4.57555" transform="rotate(-10.6729 265.84 300.729)" fill="#454545"/>
<path d="M149.342 -27.1348C153.376 28.6381 167.817 49.3827 187.571 28.1633C225.263 -6.88557 238.14 -8.77526 248.079 28.1633C258.39 72.4148 264.641 79.7765 280.738 81.4865H340.487" stroke="white" stroke-width="3" stroke-linecap="round"/>
<path d="M160.627 -49C164.661 6.77283 179.102 27.5174 198.856 6.29808C236.548 -28.7508 249.425 -30.6405 259.364 6.29808C269.675 50.5496 275.927 57.9113 292.023 59.6212H351.772" stroke="white" stroke-width="3" stroke-linecap="round"/>
</g>
<defs>
<clipPath id="clip0_373_320">
<rect width="336" height="336" rx="168" fill="white"/>
</clipPath>
</defs>
</svg>
