<svg width="48" height="48" viewBox="0 0 48 48" fill="none" xmlns="http://www.w3.org/2000/svg">
<path d="M24 4.5C20.1433 4.5 16.3731 5.64366 13.1664 7.78634C9.95963 9.92903 7.46027 12.9745 5.98436 16.5377C4.50845 20.1008 4.12228 24.0216 4.8747 27.8043C5.62711 31.5869 7.4843 35.0615 10.2114 37.7886C12.9386 40.5157 16.4131 42.3729 20.1957 43.1253C23.9784 43.8777 27.8992 43.4916 31.4623 42.0156C35.0255 40.5397 38.071 38.0404 40.2137 34.8336C42.3564 31.6269 43.5 27.8567 43.5 24C43.4901 18.8313 41.4325 13.8772 37.7776 10.2224C34.1228 6.56755 29.1687 4.50991 24 4.5V4.5ZM30.2625 25.1062L22.7625 31.8562C22.4842 32.1063 22.1242 32.2463 21.75 32.25C21.5417 32.2511 21.3355 32.2082 21.1449 32.1242C20.9543 32.0402 20.7835 31.917 20.6438 31.7625C20.3753 31.4691 20.2344 31.081 20.252 30.6837C20.2696 30.2864 20.4442 29.9123 20.7375 29.6438L27 24L20.7375 18.3563C20.454 18.0853 20.2879 17.714 20.2748 17.322C20.2617 16.93 20.4027 16.5485 20.6675 16.2592C20.9323 15.9699 21.2998 15.7958 21.6914 15.7742C22.083 15.7526 22.4675 15.8853 22.7625 16.1437L30.2625 22.8937C30.416 23.0343 30.5385 23.2052 30.6224 23.3957C30.7062 23.5861 30.7495 23.7919 30.7495 24C30.7495 24.2081 30.7062 24.4139 30.6224 24.6043C30.5385 24.7948 30.416 24.9657 30.2625 25.1062V25.1062Z" fill="black"/>
</svg>
