<svg width="40" height="43" viewBox="0 0 40 43" fill="none" xmlns="http://www.w3.org/2000/svg">
<g filter="url(#filter0_d_220_4020)">
<path d="M31.104 33.9C32.6862 33.9 33.9688 32.6174 33.9688 31.0352C33.9688 29.402 32.6336 28.2547 31.104 28.2547C29.5744 28.2547 28.2392 29.402 28.2392 31.0352C28.2392 32.6174 29.5218 33.9 31.104 33.9Z" fill="#FECC36" stroke="#454545" stroke-width="1.8"/>
<path d="M15.3855 33.8991C16.9677 33.8991 18.2503 32.6165 18.2503 31.0343C18.2503 29.4005 16.9144 28.2547 15.3855 28.2547C13.8565 28.2547 12.5207 29.4005 12.5207 31.0343C12.5207 32.6165 13.8033 33.8991 15.3855 33.8991Z" fill="#FECC36" stroke="#454545" stroke-width="1.8"/>
<path d="M12.8593 27.9462L12.784 28.6924L12.8207 28.6961L12.8575 28.6962L12.8593 27.9462ZM31.383 28.7411C31.7972 28.7421 32.1338 28.4071 32.1348 27.9929C32.1358 27.5787 31.8008 27.2421 31.3866 27.2411L31.383 28.7411ZM9.74629 3.10946L10.1538 2.47981L10.1045 2.44793L10.0509 2.4241L9.74629 3.10946ZM5.3046 0.314641C4.92609 0.146413 4.48287 0.316883 4.31464 0.695396C4.14641 1.07391 4.31688 1.51713 4.6954 1.68536L5.3046 0.314641ZM10.0524 3.80689L9.31322 3.68L9.30241 3.74299V3.80689H10.0524ZM9.30241 22.8938C9.30241 24.0716 9.47033 25.3992 9.9635 26.4895C10.4655 27.5994 11.3545 28.5482 12.784 28.6924L12.9346 27.2C12.2067 27.1265 11.6923 26.6719 11.3302 25.8713C10.9593 25.0512 10.8024 23.9615 10.8024 22.8938H9.30241ZM12.8575 28.6962L31.383 28.7411L31.3866 27.2411L12.8611 27.1962L12.8575 28.6962ZM10.0509 2.4241L5.3046 0.314641L4.6954 1.68536L9.44168 3.79482L10.0509 2.4241ZM9.30241 3.80689V22.8938H10.8024V3.80689H9.30241ZM9.33881 3.73911C9.36982 3.75919 9.39044 3.77272 9.40726 3.78436C9.41513 3.7898 9.42071 3.79383 9.42462 3.79675C9.4285 3.79965 9.4301 3.80098 9.43002 3.80092C9.43 3.80089 9.42122 3.79363 9.40861 3.77926C9.39539 3.7642 9.37963 3.74322 9.36487 3.71657C9.35 3.68972 9.3395 3.66313 9.3327 3.6391C9.3261 3.61576 9.32424 3.59926 9.32374 3.59282C9.32328 3.58686 9.32402 3.59008 9.32297 3.60528C9.32191 3.6205 9.31928 3.64469 9.31322 3.68L10.7916 3.93379C10.8401 3.65143 10.8549 3.31104 10.6771 2.98993C10.5156 2.69823 10.2457 2.53933 10.1538 2.47981L9.33881 3.73911Z" fill="#454545"/>
<path d="M34.7458 21.1977C34.6024 22.9631 33.9137 23.5581 31.5935 23.441H13.2041C11.6941 23.3327 9.89174 22.2626 10.0525 20.6483L10.0525 8.85938C10.0525 8.85938 31.8964 11.4916 33.2314 11.4916C34.5663 11.4916 34.8015 11.8792 34.7458 12.7852V21.1977Z" fill="#FECC36"/>
<path d="M31.5935 23.441L31.6312 22.692L31.6124 22.691H31.5935V23.441ZM34.7458 21.1977L35.4933 21.2584L35.4958 21.2281V21.1977H34.7458ZM34.7458 12.7852L33.9972 12.7392L33.9958 12.7622V12.7852H34.7458ZM10.0525 20.6483L10.7988 20.7227L10.8025 20.6856V20.6483H10.0525ZM13.2041 23.441L13.1504 24.1891L13.1772 24.191H13.2041V23.441ZM10.0525 8.85938L10.1422 8.11476L9.30252 8.01357L9.30252 8.85938L10.0525 8.85938ZM31.5557 24.1901C32.7344 24.2496 33.7245 24.151 34.4317 23.6285C35.1822 23.0738 35.4169 22.1991 35.4933 21.2584L33.9983 21.137C33.9313 21.9617 33.7499 22.2671 33.5402 22.4221C33.2871 22.6092 32.7727 22.7496 31.6312 22.692L31.5557 24.1901ZM33.9958 12.7852V21.1977H35.4958V12.7852H33.9958ZM33.2314 12.2416C33.5355 12.2416 33.7347 12.2643 33.8628 12.2953C33.9873 12.3254 34.0054 12.3538 33.9904 12.3394C33.9452 12.296 34.0243 12.2989 33.9972 12.7392L35.4944 12.8312C35.523 12.3655 35.5123 11.7216 35.0297 11.2578C34.579 10.8247 33.9079 10.7416 33.2314 10.7416V12.2416ZM9.30621 20.574C9.19269 21.7138 9.78753 22.6137 10.5406 23.2008C11.2861 23.7822 12.2588 24.1252 13.1504 24.1891L13.2577 22.693C12.6393 22.6486 11.9559 22.4023 11.4629 22.018C10.9775 21.6394 10.7516 21.1971 10.7988 20.7227L9.30621 20.574ZM13.2041 24.191H31.5935V22.691H13.2041V24.191ZM10.0525 8.85938C9.96279 9.60399 9.96288 9.604 9.96305 9.60402C9.96321 9.60404 9.96346 9.60407 9.9638 9.60411C9.96447 9.60419 9.96546 9.60431 9.96679 9.60447C9.96944 9.60479 9.97341 9.60527 9.97867 9.6059C9.98919 9.60717 10.0049 9.60906 10.0256 9.61155C10.067 9.61653 10.1284 9.62393 10.2086 9.63357C10.369 9.65286 10.6044 9.68114 10.9044 9.71714C11.5044 9.78913 12.3631 9.89197 13.3976 10.0154C15.4667 10.2622 18.2395 10.5913 21.0542 10.9204C23.8686 11.2495 26.7261 11.5787 28.9642 11.8258C30.0829 11.9492 31.0489 12.0524 31.778 12.1248C32.4839 12.1949 33.0177 12.2416 33.2314 12.2416V10.7416C33.1112 10.7416 32.6704 10.706 31.9262 10.6321C31.2052 10.5606 30.2456 10.4581 29.1287 10.3348C26.8956 10.0883 24.0419 9.75951 21.2284 9.43054C18.4153 9.10161 15.6437 8.77266 13.5753 8.52593C12.5411 8.40257 11.6828 8.29977 11.0831 8.22782C10.7832 8.19184 10.548 8.16357 10.3877 8.1443C10.3076 8.13467 10.2462 8.12728 10.2049 8.1223C10.1842 8.11981 10.1685 8.11793 10.158 8.11666C10.1528 8.11603 10.1488 8.11556 10.1462 8.11524C10.1449 8.11508 10.1439 8.11496 10.1432 8.11488C10.1429 8.11484 10.1427 8.11481 10.1425 8.11479C10.1423 8.11477 10.1422 8.11476 10.0525 8.85938ZM9.30252 8.85938L9.30252 20.6483H10.8025L10.8025 8.85937L9.30252 8.85938Z" fill="#454545"/>
</g>
<defs>
<filter id="filter0_d_220_4020" x="0.249756" y="0.25" width="39.2537" height="42.5498" filterUnits="userSpaceOnUse" color-interpolation-filters="sRGB">
<feFlood flood-opacity="0" result="BackgroundImageFix"/>
<feColorMatrix in="SourceAlpha" type="matrix" values="0 0 0 0 0 0 0 0 0 0 0 0 0 0 0 0 0 0 127 0" result="hardAlpha"/>
<feOffset dy="4"/>
<feGaussianBlur stdDeviation="2"/>
<feComposite in2="hardAlpha" operator="out"/>
<feColorMatrix type="matrix" values="0 0 0 0 0 0 0 0 0 0 0 0 0 0 0 0 0 0 0.25 0"/>
<feBlend mode="normal" in2="BackgroundImageFix" result="effect1_dropShadow_220_4020"/>
<feBlend mode="normal" in="SourceGraphic" in2="effect1_dropShadow_220_4020" result="shape"/>
</filter>
</defs>
</svg>
