<svg width="1452" height="1201" viewBox="0 0 1452 1201" fill="none" xmlns="http://www.w3.org/2000/svg">
<rect width="1452" height="1201" fill="#454545"/>
<path d="M97.163 723.372C112.663 872.872 137.163 927.872 79.163 959.372C21.1634 990.872 110.663 1012.87 226.163 1099.87C341.663 1186.87 259.663 983.872 362.163 921.872C464.663 859.872 81.6628 573.872 97.163 723.372Z" fill="url(#paint0_linear_1097_582)"/>
<path d="M1151.16 1033.37C1133.66 979.872 939.663 988.372 1053.16 872.872C1166.66 757.372 1089.16 872.872 1115.66 890.372C1142.16 907.872 1378.16 786.372 1389.66 872.872C1401.16 959.372 1168.66 1086.87 1151.16 1033.37Z" fill="url(#paint1_linear_1097_582)"/>
<path d="M596.163 613.872C473.163 504.372 976.563 121.572 982.163 112.372C982.163 112.372 1064.66 19.3723 1133.66 143.872C1202.66 268.372 1157.66 484.372 1238.16 593.872C1318.66 703.372 1115.66 761.372 1019.66 669.872C923.663 578.372 719.163 723.372 596.163 613.872Z" fill="url(#paint2_linear_1097_582)"/>
<defs>
<linearGradient id="paint0_linear_1097_582" x1="725.538" y1="79" x2="725.663" y2="1235.37" gradientUnits="userSpaceOnUse">
<stop stop-color="#70D7C7"/>
<stop offset="0.9375" stop-color="#FFCB34"/>
</linearGradient>
<linearGradient id="paint1_linear_1097_582" x1="725.538" y1="79" x2="725.663" y2="1235.37" gradientUnits="userSpaceOnUse">
<stop stop-color="#70D7C7"/>
<stop offset="0.9375" stop-color="#FFCB34"/>
</linearGradient>
<linearGradient id="paint2_linear_1097_582" x1="725.538" y1="79" x2="725.663" y2="1235.37" gradientUnits="userSpaceOnUse">
<stop stop-color="#70D7C7"/>
<stop offset="0.9375" stop-color="#FFCB34"/>
</linearGradient>
</defs>
</svg>
