<svg width="48" height="48" viewBox="0 0 48 48" fill="none" xmlns="http://www.w3.org/2000/svg">
<path d="M42 9H6C5.60218 9 5.22064 9.15804 4.93934 9.43934C4.65804 9.72064 4.5 10.1022 4.5 10.5V36C4.5 36.7956 4.81607 37.5587 5.37868 38.1213C5.94129 38.6839 6.70435 39 7.5 39H40.5C41.2957 39 42.0587 38.6839 42.6213 38.1213C43.1839 37.5587 43.5 36.7956 43.5 36V10.5C43.5 10.1022 43.342 9.72064 43.0607 9.43934C42.7794 9.15804 42.3978 9 42 9ZM18.5062 24L7.5 34.0875V13.9125L18.5062 24ZM20.7188 26.0437L22.9875 28.1062C23.264 28.3592 23.6252 28.4995 24 28.4995C24.3748 28.4995 24.736 28.3592 25.0125 28.1062L27.2812 26.0437L38.1375 36H9.8625L20.7188 26.0437ZM29.4938 24L40.5 13.9125V34.0875L29.4938 24Z" fill="black"/>
</svg>
