<svg width="29" height="27" viewBox="0 0 29 27" fill="none" xmlns="http://www.w3.org/2000/svg">
<path d="M27.9035 10.175C27.7783 9.78123 27.5371 9.43446 27.2114 9.18017C26.8857 8.92588 26.4908 8.77594 26.0785 8.75L18.6535 8.2375L15.9035 1.3C15.7533 0.918004 15.4919 0.58988 15.1532 0.358105C14.8144 0.12633 14.4139 0.0015786 14.0035 0C13.593 0.0015786 13.1925 0.12633 12.8537 0.358105C12.515 0.58988 12.2536 0.918004 12.1035 1.3L9.30346 8.275L1.92846 8.75C1.51659 8.77762 1.12249 8.92819 0.79713 9.18224C0.471771 9.43629 0.230129 9.78212 0.103463 10.175C-0.0266113 10.5739 -0.0342111 11.0026 0.0816435 11.4059C0.197498 11.8092 0.431495 12.1685 0.753463 12.4375L6.42846 17.2375L4.74096 23.875C4.62421 24.324 4.64522 24.7978 4.80127 25.2347C4.95731 25.6716 5.24117 26.0515 5.61596 26.325C5.97975 26.5861 6.41317 26.7327 6.86076 26.7461C7.30835 26.7594 7.74975 26.6389 8.12846 26.4L13.991 22.6875H14.016L20.3285 26.675C20.6523 26.8854 21.0298 26.9983 21.416 27C21.7313 26.9975 22.0418 26.9228 22.3237 26.7815C22.6056 26.6403 22.8514 26.4362 23.0421 26.1851C23.2329 25.9341 23.3635 25.6426 23.424 25.3331C23.4844 25.0236 23.4731 24.7044 23.391 24.4L21.6035 17.1375L27.2535 12.4375C27.5754 12.1685 27.8094 11.8092 27.9253 11.4059C28.0411 11.0026 28.0335 10.5739 27.9035 10.175Z" fill="#454545"/>
</svg>
