<svg width="49" height="48" viewBox="0 0 49 48" fill="none" xmlns="http://www.w3.org/2000/svg">
<path d="M39.7356 23.8842C39.7259 28.6484 37.975 33.2452 34.8117 36.8115C31.6484 40.3778 27.2902 42.6683 22.5555 43.253C22.4498 43.2633 22.3431 43.2517 22.2422 43.219C22.1412 43.1862 22.0481 43.1329 21.9688 43.0625C21.8894 42.992 21.8255 42.9059 21.7811 42.8097C21.7366 42.7134 21.7126 42.609 21.7105 42.503V28.3842H26.2168C26.4222 28.3846 26.6255 28.3429 26.8142 28.2618C27.0028 28.1806 27.1728 28.0616 27.3136 27.9122C27.4543 27.7629 27.5629 27.5863 27.6327 27.3933C27.7024 27.2004 27.7317 26.9952 27.7189 26.7905C27.6857 26.4026 27.5063 26.0417 27.2171 25.7807C26.9279 25.5198 26.5502 25.378 26.1605 25.3842H21.7105V20.8842C21.7105 20.0886 22.0271 19.3255 22.5904 18.7629C23.1538 18.2003 23.918 17.8842 24.7147 17.8842H27.7189C27.9243 17.8846 28.1276 17.8429 28.3162 17.7617C28.5049 17.6806 28.6749 17.5616 28.8156 17.4123C28.9564 17.2629 29.065 17.0863 29.1347 16.8933C29.2045 16.7004 29.2338 16.4952 29.221 16.2905C29.1877 15.9026 29.0084 15.5417 28.7192 15.2807C28.4299 15.0198 28.0523 14.878 27.6626 14.8842H24.7147C23.1212 14.8842 21.593 15.5163 20.4662 16.6416C19.3394 17.7668 18.7064 19.2929 18.7064 20.8842V25.3842H14.2001C13.9947 25.3838 13.7914 25.4255 13.6027 25.5066C13.4141 25.5878 13.2441 25.7068 13.1034 25.8562C12.9626 26.0055 12.854 26.1821 12.7842 26.3751C12.7145 26.568 12.6852 26.7732 12.698 26.978C12.7313 27.3658 12.9106 27.7267 13.1998 27.9877C13.489 28.2486 13.8667 28.3904 14.2564 28.3842H18.7064V42.503C18.7069 42.6081 18.6853 42.7122 18.6429 42.8084C18.6006 42.9047 18.5384 42.9909 18.4605 43.0617C18.3826 43.1324 18.2907 43.186 18.1907 43.2189C18.0908 43.2519 17.985 43.2635 17.8802 43.253C7.96645 42.053 0.305811 33.4467 0.700109 23.153C0.921447 18.0694 3.12382 13.2736 6.83713 9.78927C10.5504 6.30491 15.4805 4.408 20.575 4.50343C25.6696 4.59887 30.5249 6.67909 34.1048 10.3001C37.6846 13.9211 39.7053 18.796 39.7356 23.8842Z" fill="black"/>
</svg>
