<svg width="336" height="336" viewBox="0 0 336 336" fill="none" xmlns="http://www.w3.org/2000/svg">
<g clip-path="url(#clip0_419_103)">
<circle cx="164.154" cy="165.421" r="179.154" fill="#9C9C9C"/>
<path d="M284.766 332.585C284.766 393.354 253.221 375.963 192.452 375.963C131.683 375.963 60.8232 397.586 60.8232 336.817C60.8232 276.048 100.296 164.716 161.064 164.716C221.833 164.716 284.766 271.816 284.766 332.585Z" fill="black"/>
<circle cx="168.034" cy="119.222" r="63.1273" fill="black"/>
<path d="M165.609 149.023C176.317 152.777 180.763 150.184 186.962 140.398" stroke="white" stroke-width="3" stroke-linecap="round"/>
<ellipse cx="182.493" cy="107.584" rx="7.75866" ry="9.87466" fill="white"/>
<ellipse cx="146.521" cy="110.405" rx="7.75866" ry="9.87466" fill="white"/>
<rect x="262.723" y="253.075" width="114.897" height="92.5278" transform="rotate(76.8584 262.723 253.075)" fill="#70D7C7"/>
<rect x="282.042" y="231.723" width="114.897" height="92.5278" transform="rotate(76.8584 282.042 231.723)" fill="#715AFF"/>
<circle cx="234.965" cy="279.646" r="4.57555" transform="rotate(-10.6729 234.965 279.646)" fill="#454545"/>
<circle cx="247.954" cy="277.198" r="4.57555" transform="rotate(-10.6729 247.954 277.198)" fill="#454545"/>
<circle cx="260.944" cy="274.751" r="4.57555" transform="rotate(-10.6729 260.944 274.751)" fill="#454545"/>
<circle cx="237.413" cy="292.636" r="4.57555" transform="rotate(-10.6729 237.413 292.636)" fill="#454545"/>
<circle cx="250.402" cy="290.188" r="4.57555" transform="rotate(-10.6729 250.402 290.188)" fill="#454545"/>
<circle cx="263.392" cy="287.74" r="4.57555" transform="rotate(-10.6729 263.392 287.74)" fill="#454545"/>
<circle cx="239.861" cy="305.626" r="4.57555" transform="rotate(-10.6729 239.861 305.626)" fill="#454545"/>
<circle cx="252.851" cy="303.177" r="4.57555" transform="rotate(-10.6729 252.851 303.177)" fill="#454545"/>
<circle cx="265.84" cy="300.729" r="4.57555" transform="rotate(-10.6729 265.84 300.729)" fill="#454545"/>
<path d="M149.342 -27.1348C153.377 28.6381 167.817 49.3827 187.571 28.1633C225.264 -6.88557 238.14 -8.77526 248.08 28.1633C258.39 72.4148 264.642 79.7765 280.739 81.4865H340.487" stroke="white" stroke-width="3" stroke-linecap="round"/>
<path d="M160.628 -49C164.662 6.77283 179.103 27.5174 198.857 6.29808C236.549 -28.7508 249.426 -30.6405 259.365 6.29808C269.676 50.5496 275.928 57.9113 292.024 59.6212H351.773" stroke="white" stroke-width="3" stroke-linecap="round"/>
</g>
<defs>
<clipPath id="clip0_419_103">
<rect width="336" height="336" rx="168" fill="white"/>
</clipPath>
</defs>
</svg>
