<svg width="37" height="32" viewBox="0 0 37 32" fill="none" xmlns="http://www.w3.org/2000/svg">
<path d="M32.41 12.1083L30.285 8.43332C30.1062 8.11972 29.867 7.84459 29.5814 7.62379C29.2958 7.40299 28.9693 7.24086 28.6207 7.14676C28.2722 7.05265 27.9085 7.02842 27.5505 7.07545C27.1926 7.12249 26.8474 7.23986 26.535 7.42082C25.9779 7.73755 25.5524 8.24294 25.335 8.84582L23.135 5.05832C22.9562 4.74472 22.717 4.46959 22.4314 4.24879C22.1458 4.02799 21.8193 3.86586 21.4707 3.77176C21.1222 3.67765 20.7585 3.65342 20.4005 3.70045C20.0426 3.74749 19.6974 3.86486 19.385 4.04582C18.8279 4.36255 18.4024 4.86794 18.185 5.47082C17.8035 4.8727 17.2064 4.44431 16.5176 4.27443C15.8288 4.10455 15.101 4.2062 14.485 4.55832C14.1725 4.73956 13.8989 4.98088 13.6801 5.26836C13.4613 5.55585 13.3015 5.8838 13.21 6.23332C13.1004 6.62401 13.0833 7.03486 13.16 7.43332C12.6718 7.47069 12.1979 7.61584 11.7725 7.85832C11.0261 8.29204 10.482 9.00391 10.2595 9.83799C10.0369 10.6721 10.154 11.5604 10.585 12.3083L10.835 12.7333C10.4062 12.7831 9.9928 12.9237 9.62255 13.1458C8.87699 13.5771 8.33314 14.2868 8.11048 15.1188C7.88782 15.9509 8.00456 16.8373 8.43505 17.5833L13.06 25.5958C14.0483 27.3104 15.5231 28.6933 17.2978 29.5692C19.0724 30.4452 21.0671 30.7749 23.0292 30.5165C24.9913 30.2582 26.8326 29.4235 28.3201 28.1181C29.8075 26.8127 30.8742 25.0953 31.385 23.1833L31.4225 23.0208C32.6855 21.5223 33.4576 19.6719 33.6342 17.72C33.8109 15.7682 33.3835 13.8092 32.41 12.1083ZM29.4475 22.6708C29.1795 23.6859 28.7121 24.6376 28.0725 25.4702C27.433 26.3029 26.6342 27 25.7225 27.5208C23.8857 28.5809 21.7032 28.8683 19.6546 28.3198C17.6059 27.7714 15.8589 26.4319 14.7975 24.5958L10.1725 16.5833C10.0481 16.3696 9.9898 16.1238 10.0051 15.877C10.0204 15.6301 10.1085 15.3934 10.2584 15.1966C10.4083 14.9999 10.6131 14.8521 10.8471 14.7718C11.081 14.6916 11.3335 14.6825 11.5725 14.7458C11.8931 14.8357 12.1664 15.0463 12.335 15.3333L15.335 20.5333C15.4244 20.6832 15.5505 20.8077 15.7014 20.8952C15.8523 20.9827 16.0231 21.0303 16.1975 21.0333C16.3728 21.0327 16.5448 20.986 16.6963 20.898C16.8478 20.81 16.9736 20.6837 17.0609 20.5318C17.1483 20.3799 17.1942 20.2077 17.194 20.0324C17.1939 19.8572 17.1477 19.6851 17.06 19.5333L12.31 11.3083C12.1443 11.0199 12.0999 10.6774 12.1866 10.3563C12.2734 10.0351 12.4841 9.76158 12.7725 9.59582C13.061 9.43006 13.4034 9.38566 13.7246 9.4724C14.0457 9.55913 14.3193 9.7699 14.485 10.0583L19.235 18.2833C19.2947 18.4077 19.3794 18.5183 19.4838 18.6083C19.5883 18.6984 19.7103 18.7658 19.842 18.8065C19.9738 18.8471 20.1126 18.86 20.2496 18.8445C20.3866 18.8289 20.5189 18.7852 20.6382 18.716C20.7575 18.6468 20.8612 18.5537 20.9428 18.4426C21.0244 18.3314 21.0822 18.2046 21.1124 18.07C21.1426 17.9355 21.1447 17.7961 21.1185 17.6607C21.0922 17.5254 21.0383 17.3969 20.96 17.2833L17.21 10.7833C17.0465 10.4944 17.0033 10.1527 17.0899 9.83216C17.1764 9.51163 17.3858 9.23811 17.6725 9.07082C17.9596 8.90785 18.2994 8.86502 18.6179 8.95167C18.9364 9.03831 19.2076 9.2474 19.3725 9.53332L24.6225 18.6333C24.713 18.785 24.8411 18.9107 24.9944 18.9983C25.1477 19.0859 25.321 19.1324 25.4975 19.1333C25.6729 19.129 25.8446 19.0818 25.9975 18.9958C26.2257 18.8626 26.3918 18.6446 26.4598 18.3893C26.5277 18.134 26.4918 17.8623 26.36 17.6333L24.36 14.1583C24.1959 13.8747 24.1509 13.5375 24.235 13.2208C24.275 13.0601 24.3479 12.9093 24.449 12.7781C24.5501 12.6468 24.6773 12.538 24.8225 12.4583C24.9616 12.3737 25.1168 12.3188 25.2782 12.2973C25.4396 12.2758 25.6036 12.2881 25.76 12.3333C25.9192 12.3732 26.0687 12.4447 26.1996 12.5435C26.3306 12.6422 26.4404 12.7663 26.5225 12.9083L28.6475 16.5958C29.1768 17.5049 29.52 18.5101 29.6574 19.553C29.7947 20.5959 29.7234 21.6557 29.4475 22.6708ZM27.3475 2.68332L27.86 0.745818C27.8937 0.6186 27.9521 0.499256 28.0319 0.3946C28.1116 0.289943 28.2112 0.202024 28.325 0.135862C28.4387 0.0697007 28.5644 0.0265918 28.6948 0.00899728C28.8252 -0.00859728 28.9578 -0.000333015 29.085 0.0333182C29.2123 0.0669694 29.3316 0.125349 29.4363 0.205123C29.5409 0.284896 29.6288 0.384503 29.695 0.498255C29.7612 0.612006 29.8043 0.737676 29.8219 0.868088C29.8395 0.9985 29.8312 1.1311 29.7975 1.25832L29.2725 3.19582C29.217 3.40827 29.0921 3.59613 28.9178 3.72969C28.7435 3.86326 28.5296 3.93491 28.31 3.93332L28.0475 3.90832C27.7926 3.83815 27.5759 3.66988 27.4447 3.44031C27.3135 3.21075 27.2786 2.93857 27.3475 2.68332ZM30.635 3.83332L31.785 2.19582C31.9387 1.9785 32.1718 1.83043 32.4338 1.78365C32.6958 1.73686 32.9657 1.79512 33.185 1.94582C33.293 2.0218 33.3848 2.1184 33.4553 2.23005C33.5257 2.3417 33.5733 2.46619 33.5954 2.59634C33.6175 2.7265 33.6136 2.85973 33.5839 2.98837C33.5543 3.117 33.4994 3.23849 33.4225 3.34582L32.2725 4.98332C32.1977 5.09086 32.1022 5.18244 31.9917 5.25273C31.8811 5.32301 31.7577 5.37059 31.6285 5.39269C31.4994 5.41479 31.3672 5.41098 31.2395 5.38147C31.1119 5.35197 30.9914 5.29735 30.885 5.22082C30.6686 5.06945 30.5208 4.83858 30.4739 4.57862C30.4271 4.31866 30.485 4.05072 30.635 3.83332ZM36.1225 6.53332L34.485 7.68332C34.3139 7.79514 34.1145 7.85584 33.91 7.85832C33.699 7.85665 33.494 7.78827 33.3242 7.66297C33.1544 7.53767 33.0286 7.36188 32.9648 7.16074C32.901 6.9596 32.9024 6.74343 32.9689 6.54317C33.0354 6.34291 33.1636 6.16882 33.335 6.04582L34.9725 4.89582C35.0799 4.81896 35.2014 4.76411 35.33 4.73444C35.4586 4.70477 35.5919 4.70086 35.722 4.72294C35.8522 4.74501 35.9767 4.79265 36.0883 4.86308C36.2 4.93352 36.2966 5.02536 36.3725 5.13332C36.5232 5.3527 36.5815 5.62259 36.5347 5.8846C36.4879 6.14661 36.3399 6.37966 36.1225 6.53332Z" fill="white"/>
</svg>
