<svg width="49" height="48" viewBox="0 0 49 48" fill="none" xmlns="http://www.w3.org/2000/svg">
<path d="M24.0865 30C27.4048 30 30.0948 27.3137 30.0948 24C30.0948 20.6863 27.4048 18 24.0865 18C20.7682 18 18.0781 20.6863 18.0781 24C18.0781 27.3137 20.7682 30 24.0865 30Z" fill="black"/>
<path d="M32.3471 5.25H15.8242C13.0355 5.25 10.3611 6.35625 8.38923 8.32538C6.41736 10.2945 5.30957 12.9652 5.30957 15.75V32.25C5.30957 35.0348 6.41736 37.7055 8.38923 39.6746C10.3611 41.6438 13.0355 42.75 15.8242 42.75H32.3471C35.1358 42.75 37.8102 41.6438 39.7821 39.6746C41.7539 37.7055 42.8617 35.0348 42.8617 32.25V15.75C42.8617 12.9652 41.7539 10.2945 39.7821 8.32538C37.8102 6.35625 35.1358 5.25 32.3471 5.25ZM24.0856 33C22.3031 33 20.5607 32.4722 19.0786 31.4832C17.5965 30.4943 16.4413 29.0887 15.7592 27.4442C15.077 25.7996 14.8986 23.99 15.2463 22.2442C15.5941 20.4984 16.4524 18.8947 17.7128 17.636C18.9733 16.3774 20.5791 15.5202 22.3274 15.1729C24.0757 14.8257 25.8878 15.0039 27.5346 15.6851C29.1814 16.3663 30.589 17.5198 31.5793 18.9999C32.5696 20.4799 33.0982 22.22 33.0982 24C33.0982 26.3869 32.1486 28.6761 30.4585 30.364C28.7683 32.0518 26.4759 33 24.0856 33ZM33.8492 16.5C33.4036 16.5 32.968 16.368 32.5974 16.1208C32.2269 15.8736 31.9381 15.5222 31.7676 15.111C31.5971 14.6999 31.5524 14.2475 31.6394 13.811C31.7263 13.3746 31.9409 12.9737 32.256 12.659C32.5711 12.3443 32.9726 12.13 33.4096 12.0432C33.8467 11.9564 34.2997 12.001 34.7114 12.1713C35.1231 12.3416 35.475 12.63 35.7226 13C35.9702 13.37 36.1023 13.805 36.1023 14.25C36.1023 14.8467 35.865 15.419 35.4424 15.841C35.0199 16.2629 34.4468 16.5 33.8492 16.5Z" fill="black"/>
</svg>
