<svg width="147" height="178" viewBox="0 0 147 178" fill="none" xmlns="http://www.w3.org/2000/svg">
<path d="M70.3459 83.1086L70.1175 82.6638L70.3459 83.1086C71.9347 82.2926 73.8597 82.2926 75.4485 83.1086L75.6769 82.6639L75.4485 83.1086L127.992 110.09L128.221 109.645L127.993 110.09C131.62 111.953 131.661 116.805 128.068 118.722L75.524 146.757L75.7593 147.198L75.5239 146.757C73.8961 147.625 71.8983 147.625 70.2705 146.757L70.0351 147.198L70.2704 146.757L17.7263 118.722C14.1336 116.805 14.174 111.953 17.8018 110.09L17.5734 109.645L17.8018 110.09L70.3459 83.1086Z" fill="url(#paint0_linear_426_881)" stroke="#E7E7E7"/>
<path d="M70.5787 72.7146C72.3112 71.825 74.4062 71.825 76.1385 72.7146L128.682 99.6963C132.668 101.743 132.715 107.106 128.765 109.214L105.586 121.581L76.2209 137.248C74.4459 138.196 72.2716 138.196 70.4963 137.248L17.9524 109.214C14.0026 107.106 14.0491 101.743 18.0348 99.6963L70.5787 72.7146Z" fill="white"/>
<path d="M70.5787 61.8982C72.3112 61.0086 74.4062 61.0086 76.1385 61.8982L128.682 88.8799C132.668 90.9265 132.715 96.29 128.765 98.3974L76.2209 126.432C74.4459 127.379 72.2716 127.379 70.4963 126.432L17.9524 98.3974C14.0026 96.29 14.0491 90.9265 18.0348 88.8799L70.5787 61.8982Z" fill="url(#paint1_linear_426_881)"/>
<g filter="url(#filter0_i_426_881)">
<path d="M71.9601 50.249C72.8264 49.8044 73.8738 49.8044 74.74 50.249L133.24 80.2893C135.233 81.3125 135.256 83.9942 133.281 85.0481L74.7811 116.26C73.8937 116.734 72.8064 116.734 71.9188 116.26L13.4191 85.0481C11.4442 83.9942 11.4674 81.3125 13.4603 80.2893L71.9601 50.249Z" fill="#727070"/>
</g>
<path d="M70.1145 44.9059C71.8467 44.0165 73.9417 44.0163 75.6742 44.9059L128.218 71.8879C132.204 73.9345 132.25 79.298 128.301 81.4054L75.7566 109.44C73.9814 110.387 71.807 110.387 70.0321 109.44L17.488 81.4054C13.5383 79.298 13.5847 73.9345 17.5704 71.8879L70.1145 44.9059Z" fill="white"/>
<path d="M70.1145 39.7141C71.8467 38.8245 73.9417 38.8245 75.6742 39.7141L128.218 66.6958C132.204 68.7424 132.25 74.1059 128.301 76.2133L75.7566 104.248C73.9814 105.195 71.807 105.195 70.0321 104.248L17.488 76.2133C13.5383 74.1059 13.5847 68.7424 17.5704 66.6958L70.1145 39.7141Z" fill="white"/>
<path d="M70.1145 34.5232C71.8467 33.6336 73.9417 33.6336 75.6742 34.5232L128.218 61.5049C132.204 63.5515 132.25 68.915 128.301 71.0224L75.7566 99.0571C73.9814 100.004 71.807 100.004 70.0321 99.0571L17.488 71.0224C13.5383 68.915 13.5847 63.5515 17.5704 61.5049L70.1145 34.5232Z" fill="white"/>
<path d="M71.9601 28.1852C72.8264 27.7403 73.8738 27.7403 74.74 28.1852L133.24 58.2253C135.233 59.2487 135.256 61.9304 133.281 62.984L74.7811 94.1966C73.8937 94.6699 72.8064 94.6699 71.9188 94.1966L13.4191 62.984C11.4442 61.9304 11.4674 59.2487 13.4603 58.2253L71.9601 28.1852Z" fill="#312D2D"/>
<path d="M16.2983 59.106V83.7333" stroke="url(#paint2_linear_426_881)" stroke-width="8" stroke-linejoin="round"/>
<path d="M72.4548 69.2568L54 58.5713" stroke="white" stroke-width="8" stroke-linecap="round"/>
<path d="M92.2143 59.1003L74.7178 49" stroke="white" stroke-width="8" stroke-linecap="round"/>
<defs>
<filter id="filter0_i_426_881" x="11.9517" y="49.9155" width="122.797" height="70.7002" filterUnits="userSpaceOnUse" color-interpolation-filters="sRGB">
<feFlood flood-opacity="0" result="BackgroundImageFix"/>
<feBlend mode="normal" in="SourceGraphic" in2="BackgroundImageFix" result="shape"/>
<feColorMatrix in="SourceAlpha" type="matrix" values="0 0 0 0 0 0 0 0 0 0 0 0 0 0 0 0 0 0 127 0" result="hardAlpha"/>
<feOffset dy="4"/>
<feGaussianBlur stdDeviation="2"/>
<feComposite in2="hardAlpha" operator="arithmetic" k2="-1" k3="1"/>
<feColorMatrix type="matrix" values="0 0 0 0 0 0 0 0 0 0 0 0 0 0 0 0 0 0 0.25 0"/>
<feBlend mode="normal" in2="shape" result="effect1_innerShadow_426_881"/>
</filter>
<linearGradient id="paint0_linear_426_881" x1="131.539" y1="118.265" x2="18.0386" y2="125.765" gradientUnits="userSpaceOnUse">
<stop stop-color="#FFCB34"/>
<stop offset="0.479167" stop-color="#70D7C7"/>
<stop offset="1" stop-color="#6953EC"/>
</linearGradient>
<linearGradient id="paint1_linear_426_881" x1="132" y1="97.4998" x2="18.5" y2="105" gradientUnits="userSpaceOnUse">
<stop stop-color="#FFCB34"/>
<stop offset="0.479167" stop-color="#70D7C7"/>
<stop offset="1" stop-color="#6953EC"/>
</linearGradient>
<linearGradient id="paint2_linear_426_881" x1="17.5001" y1="68.5001" x2="22.0001" y2="88.0001" gradientUnits="userSpaceOnUse">
<stop stop-color="#312D2D"/>
<stop offset="1" stop-color="#727070"/>
</linearGradient>
</defs>
</svg>
