<svg width="85" height="54" viewBox="0 0 85 54" fill="none" xmlns="http://www.w3.org/2000/svg">
<path d="M22.7233 44.1525L22.7233 44.1525C22.2336 44.4139 21.6325 44.4139 21.1428 44.1525L21.0739 44.2816L21.1428 44.1525L5.33462 35.7182C4.25372 35.1414 4.26588 33.6818 5.35731 33.1213L5.29026 32.9907L5.35731 33.1213L21.1655 25.0037L21.0967 24.8699L21.1655 25.0037C21.6435 24.7582 22.2226 24.7582 22.7006 25.0037L22.7612 24.8858L22.7006 25.0037L38.5087 33.1213L38.5741 32.994L38.5087 33.1213C39.6002 33.6818 39.6124 35.1414 38.5314 35.7182L22.7233 44.1525Z" fill="url(#paint0_linear_523_481)" stroke="#E7E7E7" stroke-width="0.300855"/>
<path d="M21.2334 21.8765C21.7546 21.6089 22.3849 21.6089 22.9061 21.8765L38.7142 29.9941C39.9133 30.6098 39.9273 32.2234 38.739 32.8575L31.7657 36.5781L22.9309 41.2918C22.3969 41.5768 21.7427 41.5768 21.2086 41.2918L5.40052 32.8575C4.21222 32.2234 4.2262 30.6098 5.42532 29.9941L21.2334 21.8765Z" fill="white"/>
<path d="M21.2334 18.6224C21.7546 18.3547 22.3849 18.3547 22.9061 18.6224L38.7142 26.7399C39.9133 27.3557 39.9273 28.9693 38.739 29.6033L22.9309 38.0377C22.3969 38.3227 21.7427 38.3227 21.2086 38.0377L5.40052 29.6033C4.21222 28.9693 4.2262 27.3557 5.42532 26.7399L21.2334 18.6224Z" fill="url(#paint1_linear_523_481)"/>
<g filter="url(#filter0_i_523_481)">
<path d="M21.6495 15.1177C21.9102 14.9839 22.2253 14.9839 22.4859 15.1177L40.0858 24.1554C40.6854 24.4633 40.6923 25.2701 40.0982 25.5871L22.4982 34.9775C22.2313 35.12 21.9041 35.12 21.6371 34.9775L4.03718 25.5871C3.44302 25.2701 3.45001 24.4633 4.04957 24.1554L21.6495 15.1177Z" fill="#727070"/>
</g>
<path d="M21.0948 13.51C21.6159 13.2425 22.2462 13.2424 22.7674 13.51L38.5755 21.6277C39.7746 22.2434 39.7886 23.857 38.6003 24.4911L22.7922 32.9254C22.2581 33.2103 21.604 33.2103 21.07 32.9254L5.26185 24.4911C4.07355 23.857 4.08753 22.2434 5.28665 21.6277L21.0948 13.51Z" fill="white"/>
<path d="M21.0948 11.9483C21.6159 11.6806 22.2462 11.6806 22.7674 11.9483L38.5755 20.0659C39.7746 20.6816 39.7886 22.2952 38.6003 22.9292L22.7922 31.3636C22.2581 31.6486 21.604 31.6486 21.07 31.3636L5.26185 22.9292C4.07355 22.2952 4.08753 20.6816 5.28665 20.0659L21.0948 11.9483Z" fill="white"/>
<path d="M21.0948 10.3865C21.6159 10.1189 22.2462 10.1189 22.7674 10.3865L38.5755 18.5041C39.7746 19.1198 39.7886 20.7335 38.6003 21.3675L22.7922 29.8019C22.2581 30.0868 21.604 30.0868 21.07 29.8019L5.26185 21.3675C4.07355 20.7335 4.08753 19.1198 5.28665 18.5041L21.0948 10.3865Z" fill="white"/>
<path d="M21.6495 8.47978C21.9102 8.34593 22.2253 8.34593 22.4859 8.47978L40.0858 17.5175C40.6854 17.8254 40.6923 18.6322 40.0982 18.9492L22.4982 28.3396C22.2313 28.482 21.9041 28.482 21.6371 28.3396L4.03718 18.9492C3.44302 18.6322 3.45001 17.8254 4.04957 17.5175L21.6495 8.47978Z" fill="#312D2D"/>
<path d="M4.9043 17.7822V25.1915" stroke="url(#paint2_linear_523_481)" stroke-width="2.40684" stroke-linejoin="round"/>
<path d="M21.7983 20.8361L16.2461 17.6213" stroke="white" stroke-width="2.40684" stroke-linecap="round"/>
<path d="M27.7424 17.7807L22.4785 14.7419" stroke="white" stroke-width="2.40684" stroke-linecap="round"/>
<path d="M52.6329 22.8038C52.2329 22.8038 51.8529 22.7538 51.4929 22.6538C51.1429 22.5438 50.8179 22.3938 50.5179 22.2038C50.2179 22.0038 49.9579 21.7688 49.7379 21.4988L50.6079 20.6288C50.8679 20.9488 51.1679 21.1888 51.5079 21.3488C51.8479 21.4988 52.2279 21.5738 52.6479 21.5738C53.0679 21.5738 53.3929 21.5038 53.6229 21.3638C53.8529 21.2138 53.9679 21.0088 53.9679 20.7488C53.9679 20.4888 53.8729 20.2888 53.6829 20.1488C53.5029 19.9988 53.2679 19.8788 52.9779 19.7888C52.6879 19.6888 52.3779 19.5938 52.0479 19.5038C51.7279 19.4038 51.4229 19.2788 51.1329 19.1288C50.8429 18.9788 50.6029 18.7738 50.4129 18.5138C50.2329 18.2538 50.1429 17.9088 50.1429 17.4788C50.1429 17.0488 50.2479 16.6788 50.4579 16.3688C50.6679 16.0488 50.9579 15.8038 51.3279 15.6338C51.7079 15.4638 52.1629 15.3788 52.6929 15.3788C53.2529 15.3788 53.7479 15.4788 54.1779 15.6788C54.6179 15.8688 54.9779 16.1588 55.2579 16.5488L54.3879 17.4188C54.1879 17.1588 53.9379 16.9588 53.6379 16.8188C53.3479 16.6788 53.0179 16.6088 52.6479 16.6088C52.2579 16.6088 51.9579 16.6788 51.7479 16.8188C51.5479 16.9488 51.4479 17.1338 51.4479 17.3738C51.4479 17.6138 51.5379 17.7988 51.7179 17.9288C51.8979 18.0588 52.1329 18.1688 52.4229 18.2588C52.7229 18.3488 53.0329 18.4438 53.3529 18.5438C53.6729 18.6338 53.9779 18.7588 54.2679 18.9188C54.5579 19.0788 54.7929 19.2938 54.9729 19.5638C55.1629 19.8338 55.2579 20.1888 55.2579 20.6288C55.2579 21.2988 55.0179 21.8288 54.5379 22.2188C54.0679 22.6088 53.4329 22.8038 52.6329 22.8038ZM57.8643 22.6538V12.5438H59.2143V22.6538H57.8643ZM56.1093 16.7588V15.5288H60.9693V16.7588H56.1093ZM65.102 22.8038C64.452 22.8038 63.862 22.6438 63.332 22.3238C62.802 21.9938 62.382 21.5488 62.072 20.9888C61.772 20.4288 61.622 19.7988 61.622 19.0988C61.622 18.3988 61.772 17.7688 62.072 17.2088C62.382 16.6488 62.797 16.2038 63.317 15.8738C63.847 15.5438 64.442 15.3788 65.102 15.3788C65.642 15.3788 66.122 15.4938 66.542 15.7238C66.972 15.9438 67.317 16.2538 67.577 16.6538C67.837 17.0438 67.982 17.4988 68.012 18.0188V20.1638C67.982 20.6738 67.837 21.1288 67.577 21.5288C67.327 21.9288 66.987 22.2438 66.557 22.4738C66.137 22.6938 65.652 22.8038 65.102 22.8038ZM65.327 21.5288C65.997 21.5288 66.537 21.3038 66.947 20.8538C67.357 20.3938 67.562 19.8088 67.562 19.0988C67.562 18.6088 67.467 18.1838 67.277 17.8238C67.097 17.4538 66.837 17.1688 66.497 16.9688C66.157 16.7588 65.762 16.6538 65.312 16.6538C64.862 16.6538 64.462 16.7588 64.112 16.9688C63.772 17.1788 63.502 17.4688 63.302 17.8388C63.112 18.1988 63.017 18.6138 63.017 19.0838C63.017 19.5638 63.112 19.9888 63.302 20.3588C63.502 20.7188 63.777 21.0038 64.127 21.2138C64.477 21.4238 64.877 21.5288 65.327 21.5288ZM67.472 22.6538V20.7338L67.727 18.9938L67.472 17.2688V15.5288H68.837V22.6538H67.472ZM74.0575 22.8038C73.3575 22.8038 72.7225 22.6388 72.1525 22.3088C71.5925 21.9788 71.1475 21.5338 70.8175 20.9738C70.4975 20.4038 70.3375 19.7738 70.3375 19.0838C70.3375 18.3838 70.4975 17.7538 70.8175 17.1938C71.1475 16.6338 71.5925 16.1938 72.1525 15.8738C72.7225 15.5438 73.3575 15.3788 74.0575 15.3788C74.6075 15.3788 75.1175 15.4838 75.5875 15.6938C76.0575 15.8938 76.4625 16.1888 76.8025 16.5788L75.9025 17.4788C75.6825 17.2188 75.4125 17.0238 75.0925 16.8938C74.7825 16.7538 74.4375 16.6838 74.0575 16.6838C73.6075 16.6838 73.2075 16.7888 72.8575 16.9988C72.5075 17.1988 72.2325 17.4788 72.0325 17.8388C71.8325 18.1988 71.7325 18.6138 71.7325 19.0838C71.7325 19.5538 71.8325 19.9688 72.0325 20.3288C72.2325 20.6888 72.5075 20.9738 72.8575 21.1838C73.2075 21.3938 73.6075 21.4988 74.0575 21.4988C74.4375 21.4988 74.7825 21.4338 75.0925 21.3038C75.4125 21.1638 75.6875 20.9638 75.9175 20.7038L76.8025 21.6038C76.4725 21.9838 76.0675 22.2788 75.5875 22.4888C75.1175 22.6988 74.6075 22.8038 74.0575 22.8038ZM82.7014 22.6538L79.3714 19.0088L82.6714 15.5288H84.3064L80.6314 19.3688L80.6914 18.5888L84.4414 22.6538H82.7014ZM78.1414 22.6538V11.9438H79.4914V22.6538H78.1414ZM50.8074 41.6538V30.9438H52.1574V41.6538H50.8074ZM57.4326 41.8038C56.7226 41.8038 56.0826 41.6438 55.5126 41.3238C54.9426 40.9938 54.4926 40.5488 54.1626 39.9888C53.8326 39.4288 53.6676 38.7938 53.6676 38.0838C53.6676 37.3838 53.8276 36.7538 54.1476 36.1938C54.4776 35.6338 54.9176 35.1938 55.4676 34.8738C56.0276 34.5438 56.6526 34.3788 57.3426 34.3788C58.0026 34.3788 58.5826 34.5288 59.0826 34.8288C59.5926 35.1288 59.9876 35.5438 60.2676 36.0738C60.5576 36.6038 60.7026 37.2038 60.7026 37.8738C60.7026 37.9738 60.6976 38.0838 60.6876 38.2038C60.6776 38.3138 60.6576 38.4438 60.6276 38.5938H54.6126V37.4688H59.9076L59.4126 37.9038C59.4126 37.4238 59.3276 37.0188 59.1576 36.6888C58.9876 36.3488 58.7476 36.0888 58.4376 35.9088C58.1276 35.7188 57.7526 35.6238 57.3126 35.6238C56.8526 35.6238 56.4476 35.7238 56.0976 35.9238C55.7476 36.1238 55.4776 36.4038 55.2876 36.7638C55.0976 37.1238 55.0026 37.5488 55.0026 38.0388C55.0026 38.5388 55.1026 38.9788 55.3026 39.3588C55.5026 39.7288 55.7876 40.0188 56.1576 40.2288C56.5276 40.4288 56.9526 40.5288 57.4326 40.5288C57.8326 40.5288 58.1976 40.4588 58.5276 40.3188C58.8676 40.1788 59.1576 39.9688 59.3976 39.6888L60.2676 40.5738C59.9276 40.9738 59.5076 41.2788 59.0076 41.4888C58.5176 41.6988 57.9926 41.8038 57.4326 41.8038ZM65.2046 41.8038C64.5546 41.8038 63.9646 41.6438 63.4346 41.3238C62.9046 40.9938 62.4846 40.5488 62.1746 39.9888C61.8746 39.4288 61.7246 38.7988 61.7246 38.0988C61.7246 37.3988 61.8746 36.7688 62.1746 36.2088C62.4846 35.6488 62.8996 35.2038 63.4196 34.8738C63.9496 34.5438 64.5446 34.3788 65.2046 34.3788C65.7446 34.3788 66.2246 34.4938 66.6446 34.7238C67.0746 34.9438 67.4196 35.2538 67.6796 35.6538C67.9396 36.0438 68.0846 36.4988 68.1146 37.0188V39.1638C68.0846 39.6738 67.9396 40.1288 67.6796 40.5288C67.4296 40.9288 67.0896 41.2438 66.6596 41.4738C66.2396 41.6938 65.7546 41.8038 65.2046 41.8038ZM65.4296 40.5288C66.0996 40.5288 66.6396 40.3038 67.0496 39.8538C67.4596 39.3938 67.6646 38.8088 67.6646 38.0988C67.6646 37.6088 67.5696 37.1838 67.3796 36.8238C67.1996 36.4538 66.9396 36.1688 66.5996 35.9688C66.2596 35.7588 65.8646 35.6538 65.4146 35.6538C64.9646 35.6538 64.5646 35.7588 64.2146 35.9688C63.8746 36.1788 63.6046 36.4688 63.4046 36.8388C63.2146 37.1988 63.1196 37.6138 63.1196 38.0838C63.1196 38.5638 63.2146 38.9888 63.4046 39.3588C63.6046 39.7188 63.8796 40.0038 64.2296 40.2138C64.5796 40.4238 64.9796 40.5288 65.4296 40.5288ZM67.5746 41.6538V39.7338L67.8296 37.9938L67.5746 36.2688V34.5288H68.9396V41.6538H67.5746ZM70.905 41.6538V34.5288H72.255V41.6538H70.905ZM72.255 37.5888L71.745 37.3638C71.745 36.4538 71.955 35.7288 72.375 35.1888C72.795 34.6488 73.4 34.3788 74.19 34.3788C74.55 34.3788 74.875 34.4438 75.165 34.5738C75.455 34.6938 75.725 34.8988 75.975 35.1888L75.09 36.1038C74.94 35.9438 74.775 35.8288 74.595 35.7588C74.415 35.6888 74.205 35.6538 73.965 35.6538C73.465 35.6538 73.055 35.8138 72.735 36.1338C72.415 36.4538 72.255 36.9388 72.255 37.5888ZM81.9948 41.6538V37.4988C81.9948 36.9588 81.8248 36.5138 81.4848 36.1638C81.1448 35.8138 80.7048 35.6388 80.1648 35.6388C79.8048 35.6388 79.4848 35.7188 79.2048 35.8788C78.9248 36.0388 78.7048 36.2588 78.5448 36.5388C78.3848 36.8188 78.3048 37.1388 78.3048 37.4988L77.7498 37.1838C77.7498 36.6438 77.8698 36.1638 78.1098 35.7438C78.3498 35.3238 78.6848 34.9938 79.1148 34.7538C79.5448 34.5038 80.0298 34.3788 80.5698 34.3788C81.1098 34.3788 81.5848 34.5138 81.9948 34.7838C82.4148 35.0538 82.7448 35.4088 82.9848 35.8488C83.2248 36.2788 83.3448 36.7388 83.3448 37.2288V41.6538H81.9948ZM76.9548 41.6538V34.5288H78.3048V41.6538H76.9548Z" fill="black"/>
<defs>
<filter id="filter0_i_523_481" x="3.5957" y="15.0173" width="36.9434" height="21.2706" filterUnits="userSpaceOnUse" color-interpolation-filters="sRGB">
<feFlood flood-opacity="0" result="BackgroundImageFix"/>
<feBlend mode="normal" in="SourceGraphic" in2="BackgroundImageFix" result="shape"/>
<feColorMatrix in="SourceAlpha" type="matrix" values="0 0 0 0 0 0 0 0 0 0 0 0 0 0 0 0 0 0 127 0" result="hardAlpha"/>
<feOffset dy="1.20342"/>
<feGaussianBlur stdDeviation="0.601709"/>
<feComposite in2="hardAlpha" operator="arithmetic" k2="-1" k3="1"/>
<feColorMatrix type="matrix" values="0 0 0 0 0 0 0 0 0 0 0 0 0 0 0 0 0 0 0.25 0"/>
<feBlend mode="normal" in2="shape" result="effect1_innerShadow_523_481"/>
</filter>
<linearGradient id="paint0_linear_523_481" x1="39.5756" y1="35.5808" x2="5.42856" y2="37.8372" gradientUnits="userSpaceOnUse">
<stop stop-color="#FFCB34"/>
<stop offset="0.479167" stop-color="#70D7C7"/>
<stop offset="1" stop-color="#6953EC"/>
</linearGradient>
<linearGradient id="paint1_linear_523_481" x1="39.7123" y1="29.3333" x2="5.56528" y2="31.5897" gradientUnits="userSpaceOnUse">
<stop stop-color="#FFCB34"/>
<stop offset="0.479167" stop-color="#70D7C7"/>
<stop offset="1" stop-color="#6953EC"/>
</linearGradient>
<linearGradient id="paint2_linear_523_481" x1="6.10608" y1="20.6085" x2="6.53303" y2="26.758" gradientUnits="userSpaceOnUse">
<stop stop-color="#312D2D"/>
<stop offset="1" stop-color="#727070"/>
</linearGradient>
</defs>
</svg>
