<svg width="1521" height="966" viewBox="0 0 1521 966" fill="none" xmlns="http://www.w3.org/2000/svg">
<g clip-path="url(#clip0_1085_500)">
<rect width="1521" height="966" fill="white"/>
<path d="M197.68 260.664C197.68 308.999 176.128 295.167 134.61 295.167C93.0917 295.167 44.6797 312.366 44.6797 264.03C44.6797 215.694 71.6475 127.14 113.165 127.14C154.683 127.14 197.68 212.328 197.68 260.664Z" fill="#454545"/>
<circle cx="118.68" cy="78.1396" r="50" fill="#454545"/>
<path d="M116.969 101.587C125.48 104.57 129.014 102.509 133.941 94.7311" stroke="white" stroke-width="3" stroke-linecap="round"/>
<ellipse cx="130.68" cy="68.6396" rx="6" ry="7.5" fill="white"/>
<path d="M22.8972 35.1032C22.8972 35.1032 32.0152 97.5684 46.5528 110.739C61.0903 123.91 124.679 146.14 124.679 146.14" stroke="#454545" stroke-width="30" stroke-linecap="round"/>
<ellipse cx="101.68" cy="71.1396" rx="6" ry="8" fill="white"/>
<path d="M-203.149 488.213C-232.125 497.918 284.549 159.735 462.546 317.008C861.377 632.25 1149.47 -18.6946 1210.18 333.139C1270.89 684.973 1193.28 595.969 1520.68 511.171" stroke="url(#paint0_linear_1085_500)" stroke-width="300"/>
<path d="M1506.68 496.14C1584.98 532.081 1496.07 502.988 1532.01 424.686C1567.95 346.385 1637.48 315.081 1559.18 279.14C1480.88 243.198 1314.32 181 1278.38 259.302C1242.44 337.603 1428.38 460.198 1506.68 496.14Z" fill="#454545"/>
<circle r="89.5" transform="matrix(-0.734308 0.678816 0.678816 0.734308 1260.25 184.567)" fill="#454545"/>
<path d="M1240.47 225.894C1254.25 234.187 1261.17 231.868 1272.59 220.067" stroke="white" stroke-width="3" stroke-linecap="round"/>
<ellipse cx="1276.42" cy="174.203" rx="11" ry="14" transform="rotate(11.7172 1276.42 174.203)" fill="white"/>
<ellipse cx="1225.51" cy="167.482" rx="11" ry="14" transform="rotate(11.7172 1225.51 167.482)" fill="white"/>
<path d="M1353.28 251.331C1353.28 251.331 1385.88 156.75 1382.42 128.184C1378.96 99.6185 1330.95 26.1394 1330.95 26.1394" stroke="#454545" stroke-width="50" stroke-linecap="round"/>
<path d="M1176.07 487.124C1176.07 487.124 1178.14 387.106 1191.25 361.492C1204.36 335.879 1274.79 283.499 1274.79 283.499" stroke="#454545" stroke-width="50" stroke-linecap="round"/>
<path d="M-91.3209 642.14C-169.623 678.081 -80.712 648.988 -116.654 570.686C-152.595 492.385 -222.123 461.081 -143.821 425.14C-65.5194 389.198 101.036 327 136.977 405.302C172.919 483.603 -13.0194 606.198 -91.3209 642.14Z" fill="#454545"/>
<circle cx="155.107" cy="330.567" r="89.5" transform="rotate(32.2023 155.107 330.567)" fill="#454545"/>
<path d="M129.682 364.488C139.692 377.082 146.985 377.33 161.815 370.273" stroke="white" stroke-width="3" stroke-linecap="round"/>
<ellipse cx="181.247" cy="327.531" rx="11" ry="14" transform="rotate(32.2023 181.247 327.531)" fill="white"/>
<ellipse cx="135.96" cy="303.737" rx="11" ry="14" transform="rotate(32.2023 135.96 303.737)" fill="white"/>
<path d="M104.68 452.72C104.68 452.72 204.224 462.664 231.226 452.72C258.228 442.777 318.68 379.14 318.68 379.14" stroke="#454545" stroke-width="50" stroke-linecap="round"/>
</g>
<defs>
<linearGradient id="paint0_linear_1085_500" x1="658.18" y1="225.521" x2="658.18" y2="587.658" gradientUnits="userSpaceOnUse">
<stop stop-color="#70D7C7"/>
<stop offset="1" stop-color="#FFCB34"/>
</linearGradient>
<clipPath id="clip0_1085_500">
<rect width="1521" height="966" fill="white"/>
</clipPath>
</defs>
</svg>
