<svg width="1521" height="839" viewBox="0 0 1521 839" fill="none" xmlns="http://www.w3.org/2000/svg">
<g clip-path="url(#clip0_1085_500)">
<path d="M197.68 293.664C197.68 341.999 176.128 328.167 134.61 328.167C93.0917 328.167 44.6797 345.366 44.6797 297.03C44.6797 248.694 71.6475 160.14 113.165 160.14C154.683 160.14 197.68 245.328 197.68 293.664Z" fill="#454545"/>
<circle cx="118.68" cy="111.14" r="50" fill="#454545"/>
<path d="M116.969 134.587C125.48 137.57 129.014 135.509 133.941 127.731" stroke="white" stroke-width="3" stroke-linecap="round"/>
<ellipse cx="130.68" cy="101.64" rx="6" ry="7.5" fill="white"/>
<path d="M22.8972 68.1032C22.8972 68.1032 32.0152 130.568 46.5528 143.739C61.0903 156.91 124.679 179.14 124.679 179.14" stroke="#454545" stroke-width="30" stroke-linecap="round"/>
<ellipse cx="101.68" cy="104.14" rx="6" ry="8" fill="white"/>
<path d="M-203.149 521.213C-232.125 530.918 284.549 192.735 462.546 350.008C861.377 665.25 1149.47 14.3054 1210.18 366.139C1270.89 717.973 1193.28 628.969 1520.68 544.171" stroke="url(#paint0_linear_1085_500)" stroke-width="300"/>
<path d="M1506.68 529.14C1584.98 565.081 1496.07 535.988 1532.01 457.686C1567.95 379.385 1637.48 348.081 1559.18 312.14C1480.88 276.198 1314.32 214 1278.38 292.302C1242.44 370.603 1428.38 493.198 1506.68 529.14Z" fill="#454545"/>
<circle r="89.5" transform="matrix(-0.734308 0.678816 0.678816 0.734308 1260.25 217.567)" fill="#454545"/>
<path d="M1240.47 258.894C1254.25 267.187 1261.17 264.868 1272.59 253.067" stroke="white" stroke-width="3" stroke-linecap="round"/>
<ellipse cx="1276.42" cy="207.203" rx="11" ry="14" transform="rotate(11.7172 1276.42 207.203)" fill="white"/>
<ellipse cx="1225.51" cy="200.482" rx="11" ry="14" transform="rotate(11.7172 1225.51 200.482)" fill="white"/>
<path d="M1353.28 284.331C1353.28 284.331 1385.88 189.75 1382.42 161.184C1378.96 132.618 1330.95 59.1394 1330.95 59.1394" stroke="#454545" stroke-width="50" stroke-linecap="round"/>
<path d="M1176.07 520.124C1176.07 520.124 1178.14 420.106 1191.25 394.492C1204.36 368.879 1274.79 316.499 1274.79 316.499" stroke="#454545" stroke-width="50" stroke-linecap="round"/>
<path d="M-91.3209 675.14C-169.623 711.081 -80.712 681.988 -116.654 603.686C-152.595 525.385 -222.123 494.081 -143.821 458.14C-65.5194 422.198 101.036 360 136.977 438.302C172.919 516.603 -13.0194 639.198 -91.3209 675.14Z" fill="#454545"/>
<circle cx="155.107" cy="363.567" r="89.5" transform="rotate(32.2023 155.107 363.567)" fill="#454545"/>
<path d="M129.682 397.488C139.692 410.082 146.985 410.33 161.815 403.273" stroke="white" stroke-width="3" stroke-linecap="round"/>
<ellipse cx="181.247" cy="360.531" rx="11" ry="14" transform="rotate(32.2023 181.247 360.531)" fill="white"/>
<ellipse cx="135.96" cy="336.737" rx="11" ry="14" transform="rotate(32.2023 135.96 336.737)" fill="white"/>
<path d="M104.68 485.72C104.68 485.72 204.224 495.664 231.226 485.72C258.228 475.777 318.68 412.14 318.68 412.14" stroke="#454545" stroke-width="50" stroke-linecap="round"/>
</g>
<defs>
<linearGradient id="paint0_linear_1085_500" x1="658.18" y1="258.521" x2="658.18" y2="620.658" gradientUnits="userSpaceOnUse">
<stop stop-color="#70D7C7"/>
<stop offset="1" stop-color="#FFCB34"/>
</linearGradient>
<clipPath id="clip0_1085_500">
<rect width="1521" height="839" fill="white"/>
</clipPath>
</defs>
</svg>
