<svg width="48" height="48" viewBox="0 0 48 48" fill="none" xmlns="http://www.w3.org/2000/svg">
<path d="M40.2515 28.7309L31.7968 25.1254C31.3605 24.9299 30.8817 24.8488 30.4054 24.8898C29.9291 24.9308 29.4711 25.0926 29.0747 25.3598L24.5499 28.3703C21.7922 27.0309 19.5594 24.8109 18.2043 22.0608L21.1968 17.4819C21.4623 17.0851 21.6244 16.6283 21.6685 16.1529C21.7125 15.6776 21.6372 15.1987 21.4492 14.7599L17.8258 6.30514C17.5729 5.73425 17.1448 5.25874 16.6035 4.94756C16.0622 4.63639 15.4358 4.50573 14.8153 4.57454C12.3809 4.89345 10.1451 6.08552 8.52365 7.92913C6.90221 9.77274 6.00541 12.1424 6 14.5976C6 28.9111 17.6455 40.5566 31.959 40.5566C34.4142 40.5512 36.7839 39.6544 38.6275 38.033C40.4711 36.4115 41.6632 34.1758 41.9821 31.7414C42.0509 31.1208 41.9202 30.4945 41.6091 29.9531C41.2979 29.4118 40.8224 28.9837 40.2515 28.7309Z" fill="black"/>
</svg>
