<svg width="48" height="48" viewBox="0 0 48 48" fill="none" xmlns="http://www.w3.org/2000/svg">
<path d="M27 40.8003H21C20.6022 40.8003 20.2206 40.952 19.9393 41.2221C19.658 41.4921 19.5 41.8584 19.5 42.2403C19.5 42.6222 19.658 42.9885 19.9393 43.2585C20.2206 43.5286 20.6022 43.6803 21 43.6803H27C27.3978 43.6803 27.7794 43.5286 28.0607 43.2585C28.342 42.9885 28.5 42.6222 28.5 42.2403C28.5 41.8584 28.342 41.4921 28.0607 41.2221C27.7794 40.952 27.3978 40.8003 27 40.8003Z" fill="black"/>
<path d="M41.0542 24.1L35.3916 17.566C35.2072 15.4139 34.7021 13.2983 33.8916 11.284C31.7167 5.84795 27.8729 2.28395 25.7542 0.645952C25.2257 0.231313 24.565 0.00331189 23.8825 3.58024e-05C23.1999 -0.00324029 22.5369 0.218407 22.0042 0.627952C19.8667 2.26595 15.9667 5.82995 13.7729 11.266C12.9315 13.322 12.4194 15.4886 12.2542 17.692L6.70415 24.1C6.40975 24.4375 6.19934 24.835 6.08888 25.2623C5.97842 25.6896 5.97082 26.1354 6.06665 26.566L8.39165 36.574C8.50103 37.0513 8.73595 37.4939 9.07403 37.8594C9.4121 38.2249 9.84205 38.5012 10.3229 38.662C10.6491 38.7681 10.991 38.8228 11.3354 38.824C12.0104 38.8204 12.6643 38.5984 13.1917 38.194L18.4042 34.198H29.3541L34.5667 38.194C35.094 38.5984 35.7479 38.8204 36.4229 38.824C36.7673 38.8228 37.1092 38.7681 37.4354 38.662C37.9163 38.5012 38.3462 38.2249 38.6843 37.8594C39.0224 37.4939 39.2573 37.0513 39.3667 36.574L41.6917 26.566C41.7875 26.1354 41.7799 25.6896 41.6694 25.2623C41.559 24.835 41.3485 24.4375 41.0542 24.1ZM11.3167 35.944L9.0104 25.936L12.3667 22.066C12.8042 25.438 13.9979 28.882 15.9479 32.398L11.3167 35.944ZM23.8792 17.638C23.4341 17.638 22.9991 17.5113 22.6291 17.2739C22.2591 17.0366 21.9707 16.6992 21.8004 16.3046C21.6301 15.9099 21.5856 15.4756 21.6724 15.0566C21.7592 14.6376 21.9735 14.2527 22.2882 13.9506C22.6028 13.6485 23.0037 13.4428 23.4402 13.3595C23.8767 13.2761 24.3291 13.3189 24.7402 13.4824C25.1513 13.6459 25.5027 13.9227 25.75 14.2779C25.9972 14.6331 26.1292 15.0507 26.1292 15.478C26.1292 16.0508 25.8921 16.6002 25.4701 17.0053C25.0482 17.4104 24.4759 17.638 23.8792 17.638ZM36.4417 35.944L31.7916 32.38C33.7416 28.834 34.9042 25.36 35.3167 21.976L38.7479 25.936L36.4417 35.944Z" fill="black"/>
</svg>
