<svg width="41" height="40" viewBox="0 0 41 40" fill="none" xmlns="http://www.w3.org/2000/svg">
<g filter="url(#filter0_d_1091_521)">
<path d="M35.5301 7.93129L20.8949 3.43129C20.6466 3.36079 20.381 3.36079 20.1327 3.43129L5.51276 7.93129H5.48227L5.32982 8.0016H5.31458L5.16213 8.08598C5.16213 8.10004 5.14688 8.10004 5.13164 8.1141L5.00968 8.21254L4.90296 8.32504C4.90296 8.3391 4.88772 8.3391 4.88772 8.35316L4.79625 8.47973C4.79625 8.49379 4.79625 8.49379 4.781 8.50785L4.72002 8.63441L4.67429 8.7891V8.83129C4.65925 8.88639 4.6541 8.9434 4.65904 9.00004V20.25C4.65904 20.5484 4.78754 20.8346 5.01626 21.0455C5.24497 21.2565 5.55518 21.375 5.87864 21.375C6.2021 21.375 6.51231 21.2565 6.74103 21.0455C6.96974 20.8346 7.09824 20.5484 7.09824 20.25V10.561L12.2205 12.136C11.2582 13.5568 10.7509 15.1997 10.757 16.875C10.7576 18.3987 11.1775 19.8973 11.9774 21.2304C12.7773 22.5635 13.9311 23.6875 15.3305 24.4969C12.4224 25.5117 9.93968 27.3537 8.24161 29.7563C8.06853 30.0088 8.00989 30.3138 8.07833 30.6058C8.14676 30.8978 8.3368 31.1533 8.60749 31.3172C8.74033 31.3984 8.88931 31.4545 9.04581 31.4822C9.20231 31.5099 9.36321 31.5086 9.51918 31.4785C9.67516 31.4485 9.82312 31.3901 9.95448 31.3069C10.0858 31.2237 10.198 31.1173 10.2844 30.9938C11.3914 29.4209 12.9071 28.1282 14.6936 27.2333C16.4801 26.3384 18.4808 25.8696 20.5138 25.8696C22.5468 25.8696 24.5475 26.3384 26.334 27.2333C28.1205 28.1282 29.6362 29.4209 30.7432 30.9938C30.8545 31.1497 31.0062 31.2777 31.1845 31.366C31.3628 31.4544 31.5621 31.5005 31.7646 31.5C31.9982 31.5023 32.227 31.4385 32.4201 31.3172C32.6908 31.1533 32.8808 30.8978 32.9493 30.6058C33.0177 30.3138 32.9591 30.0088 32.786 29.7563C31.0879 27.3537 28.6052 25.5117 25.6971 24.4969C27.0965 23.6875 28.2502 22.5635 29.0502 21.2304C29.8501 19.8973 30.27 18.3987 30.2706 16.875C30.2767 15.1997 29.7694 13.5568 28.807 12.136L35.5301 10.0688C35.7741 9.99481 35.9865 9.85166 36.1371 9.65975C36.2878 9.46784 36.3689 9.23696 36.3689 9.00004C36.3689 8.76312 36.2878 8.53224 36.1371 8.34033C35.9865 8.14842 35.7741 8.00527 35.5301 7.93129V7.93129ZM20.5138 23.625C18.5731 23.625 16.7118 22.9139 15.3395 21.648C13.9672 20.3821 13.1962 18.6653 13.1962 16.875C13.1992 15.4347 13.6954 14.032 14.614 12.8672L20.1327 14.5688C20.3802 14.6439 20.6474 14.6439 20.8949 14.5688L26.4136 12.8672C27.3322 14.032 27.8284 15.4347 27.8314 16.875C27.8314 18.6653 27.0604 20.3821 25.6881 21.648C24.3158 22.9139 22.4545 23.625 20.5138 23.625Z" fill="white"/>
</g>
<defs>
<filter id="filter0_d_1091_521" x="0.657227" y="3.37842" width="39.7119" height="36.1235" filterUnits="userSpaceOnUse" color-interpolation-filters="sRGB">
<feFlood flood-opacity="0" result="BackgroundImageFix"/>
<feColorMatrix in="SourceAlpha" type="matrix" values="0 0 0 0 0 0 0 0 0 0 0 0 0 0 0 0 0 0 127 0" result="hardAlpha"/>
<feOffset dy="4"/>
<feGaussianBlur stdDeviation="2"/>
<feComposite in2="hardAlpha" operator="out"/>
<feColorMatrix type="matrix" values="0 0 0 0 0 0 0 0 0 0 0 0 0 0 0 0 0 0 0.25 0"/>
<feBlend mode="normal" in2="BackgroundImageFix" result="effect1_dropShadow_1091_521"/>
<feBlend mode="normal" in="SourceGraphic" in2="effect1_dropShadow_1091_521" result="shape"/>
</filter>
</defs>
</svg>
