<svg width="68" height="76" viewBox="0 0 68 76" fill="none" xmlns="http://www.w3.org/2000/svg">
<path d="M52.75 63V52.375C52.75 51.8777 52.5525 51.4008 52.2008 51.0492C51.8492 50.6975 51.3723 50.5 50.875 50.5C50.3777 50.5 49.9008 50.6975 49.5492 51.0492C49.1975 51.4008 49 51.8777 49 52.375V75.5H59.4167V73C60.0798 73 60.7156 72.7366 61.1845 72.2678C61.6533 71.7989 61.9167 71.163 61.9167 70.5V63H52.75Z" fill="#F0915A"/>
<path d="M27.75 0.5C23.1087 0.5 18.6575 2.34374 15.3756 5.62563C12.0937 8.90752 10.25 13.3587 10.25 18V48H27.75V43H37.75C39.7391 43 41.6468 42.2098 43.0533 40.8033C44.4598 39.3968 45.25 37.4891 45.25 35.5V18C45.25 13.3587 43.4063 8.90752 40.1244 5.62563C36.8425 2.34374 32.3913 0.5 27.75 0.5Z" fill="#FAB991"/>
<path d="M15.25 43H27.75V48H10.25C10.25 46.6739 10.7768 45.4021 11.7145 44.4645C12.6521 43.5268 13.9239 43 15.25 43Z" fill="#F0915A"/>
<path d="M10.25 48H37.75C39.7391 48 41.6468 48.7902 43.0533 50.1967C44.4598 51.6032 45.25 53.5109 45.25 55.5V75.5H2.75V55.5C2.75 53.5109 3.54018 51.6032 4.9467 50.1967C6.35322 48.7902 8.26088 48 10.25 48Z" fill="#4B55A5"/>
<path d="M32.7493 0.5H25.2493C20.6081 0.5 16.1569 2.34374 12.875 5.62563C9.59309 8.90752 7.74935 13.3587 7.74935 18V18.6706C6.98927 18.2315 6.12699 18.0002 5.24918 18C4.37136 17.9998 3.50897 18.2307 2.7487 18.6695C1.98843 19.1083 1.35707 19.7395 0.918108 20.4997C0.479145 21.2598 0.248047 22.1222 0.248047 23C0.248047 23.8778 0.479145 24.7402 0.918108 25.5003C1.35707 26.2605 1.98843 26.8917 2.7487 27.3305C3.50897 27.7693 4.37136 28.0002 5.24918 28C6.12699 27.9998 6.98927 27.7685 7.74935 27.3294V38C7.74935 38.663 8.01274 39.2989 8.48158 39.7678C8.95042 40.2366 9.58631 40.5 10.2493 40.5H17.7493C19.0754 40.5 20.3472 39.9732 21.2849 39.0355C22.2226 38.0979 22.7493 36.8261 22.7493 35.5V23C24.0754 23 25.3472 22.4732 26.2849 21.5355C27.2226 20.5979 27.7493 19.3261 27.7493 18H45.2493C45.9124 18 46.5483 17.7366 47.0171 17.2678C47.486 16.7989 47.7493 16.163 47.7493 15.5C47.7493 11.5218 46.169 7.70644 43.356 4.8934C40.5429 2.08035 36.7276 0.5 32.7493 0.5Z" fill="#353744"/>
<path d="M22.75 23V35.5C21.0924 35.5 19.5027 34.8415 18.3306 33.6694C17.1585 32.4973 16.5 30.9076 16.5 29.25C16.5 27.5924 17.1585 26.0027 18.3306 24.8306C19.5027 23.6585 21.0924 23 22.75 23Z" fill="#F0915A"/>
<path d="M33.791 24.875C34.8265 24.875 35.666 24.0355 35.666 23C35.666 21.9645 34.8265 21.125 33.791 21.125C32.7555 21.125 31.916 21.9645 31.916 23C31.916 24.0355 32.7555 24.875 33.791 24.875Z" fill="#353744"/>
<path d="M40.041 24.875C41.0765 24.875 41.916 24.0355 41.916 23C41.916 21.9645 41.0765 21.125 40.041 21.125C39.0055 21.125 38.166 21.9645 38.166 23C38.166 24.0355 39.0055 24.875 40.041 24.875Z" fill="#353744"/>
<path d="M36.916 25.084C38.2421 25.084 39.5139 25.6108 40.4515 26.5485C41.3892 27.4861 41.916 28.7579 41.916 30.084V30.5007C41.916 31.1637 41.6526 31.7996 41.1838 32.2685C40.7149 32.7373 40.0791 33.0007 39.416 33.0007C38.753 33.0007 38.1171 32.7373 37.6483 32.2685C37.1794 31.7996 36.916 31.1637 36.916 30.5007V25.084Z" fill="#F0915A"/>
<path d="M20.25 48C22.2391 48 24.1468 48.7902 25.5533 50.1967C26.9598 51.6032 27.75 53.5109 27.75 55.5V75.5H35.25V55.5C35.25 53.5109 34.4598 51.6032 33.0533 50.1967C31.6468 48.7902 29.7391 48 27.75 48H20.25Z" fill="#D7E6F0"/>
<path d="M35.25 35.5H40.25C40.25 36.163 39.9866 36.7989 39.5178 37.2678C39.0489 37.7366 38.413 38 37.75 38C37.087 38 36.4511 37.7366 35.9822 37.2678C35.5134 36.7989 35.25 36.163 35.25 35.5Z" fill="#353744"/>
<path d="M10.25 48C12.2391 48 14.1468 48.7902 15.5533 50.1967C16.9598 51.6032 17.75 53.5109 17.75 55.5V75.5H2.75V55.5C2.75 53.5109 3.54018 51.6032 4.9467 50.1967C6.35322 48.7902 8.26088 48 10.25 48Z" fill="#715AFF"/>
<path d="M56.5 61.541C56.5 60.5055 55.6605 59.666 54.625 59.666C53.5895 59.666 52.75 60.5055 52.75 61.541V64.4577C52.75 65.4933 53.5895 66.3327 54.625 66.3327C55.6605 66.3327 56.5 65.4933 56.5 64.4577V61.541Z" fill="#FAB991"/>
<path d="M60.25 61.541C60.25 60.5055 59.4105 59.666 58.375 59.666C57.3395 59.666 56.5 60.5055 56.5 61.541V64.4577C56.5 65.4933 57.3395 66.3327 58.375 66.3327C59.4105 66.3327 60.25 65.4933 60.25 64.4577V61.541Z" fill="#FAB991"/>
<path d="M64 62.791C64 61.7555 63.1605 60.916 62.125 60.916C61.0895 60.916 60.25 61.7555 60.25 62.791V64.4577C60.25 65.4933 61.0895 66.3327 62.125 66.3327C63.1605 66.3327 64 65.4933 64 64.4577V62.791Z" fill="#FAB991"/>
<path d="M49 60.5C49.663 60.5 50.2989 60.7634 50.7678 61.2322C51.2366 61.7011 51.5 62.337 51.5 63V69.25H52.75C53.7446 69.25 54.6984 69.6451 55.4016 70.3484C56.1049 71.0516 56.5 72.0054 56.5 73H49C48.6685 73 48.3505 72.8683 48.1161 72.6339C47.8817 72.3995 47.75 72.0815 47.75 71.75V61.75C47.75 61.4185 47.8817 61.1005 48.1161 60.8661C48.3505 60.6317 48.6685 60.5 49 60.5Z" fill="#FAB991"/>
<path d="M66.5 28H51.5C50.8096 28 50.25 28.5596 50.25 29.25V46.75C50.25 47.4404 50.8096 48 51.5 48H66.5C67.1904 48 67.75 47.4404 67.75 46.75V29.25C67.75 28.5596 67.1904 28 66.5 28Z" fill="url(#paint0_linear_250_552)"/>
<path d="M62.75 29.25H65.875C66.0408 29.25 66.1997 29.3158 66.3169 29.4331C66.4342 29.5503 66.5 29.7092 66.5 29.875V46.125C66.5 46.2908 66.4342 46.4497 66.3169 46.5669C66.1997 46.6842 66.0408 46.75 65.875 46.75H62.75V29.25Z" fill="#D7E6F0"/>
<path d="M61.5 28H51.5C50.8096 28 50.25 28.5596 50.25 29.25V46.75C50.25 47.4404 50.8096 48 51.5 48H61.5C62.1904 48 62.75 47.4404 62.75 46.75V29.25C62.75 28.5596 62.1904 28 61.5 28Z" fill="#70D7C7"/>
<path d="M59 30.5H54C53.3096 30.5 52.75 31.0596 52.75 31.75V34.25C52.75 34.9404 53.3096 35.5 54 35.5H59C59.6904 35.5 60.25 34.9404 60.25 34.25V31.75C60.25 31.0596 59.6904 30.5 59 30.5Z" fill="#715AFF"/>
<defs>
<linearGradient id="paint0_linear_250_552" x1="59" y1="28" x2="59" y2="48" gradientUnits="userSpaceOnUse">
<stop stop-color="#70D7C7"/>
<stop offset="1" stop-color="#FFCB34"/>
</linearGradient>
</defs>
</svg>
