<svg width="1589" height="1382" viewBox="0 0 1589 1382" fill="none" xmlns="http://www.w3.org/2000/svg">
<path d="M253 1054.5C365.8 1048.9 482 1160.83 526 1217.5" stroke="url(#paint0_linear_1094_527)" stroke-width="2" stroke-linecap="round"/>
<path d="M1587.5 1292.24C1452.02 1332.2 1369.26 1337.74 1162 1199.74C989.696 1100.79 933.496 1194.24 828.499 1308.74C698.945 1450.02 636.513 1365.11 524.999 1216.24" stroke="url(#paint1_linear_1094_527)" stroke-width="2" stroke-linecap="round"/>
<path d="M1453.81 455.948C1380.2 484.652 1338.22 483.543 1257.05 330.81C1187.08 219.421 1144.4 307.23 1074.17 411.954C987.503 541.171 969.897 452.365 938.006 296.507" stroke="url(#paint2_linear_1094_527)" stroke-width="2" stroke-linecap="round"/>
<path d="M744.003 286.999C775.118 280.934 869.001 201 769.001 167.5C669 134 647.5 1.50098 641.784 39.034C636.067 76.567 605.466 24.1246 600.602 66.0209C595.738 107.917 585.843 126.655 616.792 154.129C647.741 181.603 463.404 233.464 533.708 231.297C604.012 229.129 620.741 401.484 657.328 340.922C693.914 280.36 712.888 293.063 744.003 286.999Z" fill="#70D7C7"/>
<path d="M150.933 896.666C100.788 878.068 129.502 986.497 31.1782 936.237C-67.146 885.978 99.2554 1449.83 100.128 1321.66C101 1193.5 178.003 1255.5 159.503 1193.5C141.003 1131.5 453.003 1221 350.503 1164C248.003 1107 385.503 868.998 276.503 916.498C167.503 963.997 201.078 915.265 150.933 896.666Z" fill="#FECC36"/>
<path d="M1403.13 1006.15C1427.22 1027.98 1497.5 1034.5 1479.63 1010.88C1461.77 987.26 1567.5 841.998 1575.26 796.839C1583.01 751.681 1565.2 759.914 1527.79 777.837C1490.38 795.76 1468.91 797.578 1465.34 836.739C1461.77 875.9 1305.95 754.926 1350.91 810.24C1395.87 865.554 1264.52 968.781 1336.75 966.601C1408.99 964.422 1379.03 984.334 1403.13 1006.15Z" fill="#715AFF"/>
<defs>
<linearGradient id="paint0_linear_1094_527" x1="389.5" y1="1054.3" x2="389.5" y2="1217.5" gradientUnits="userSpaceOnUse">
<stop stop-color="#70D7C7"/>
<stop offset="1" stop-color="#FFCB34"/>
</linearGradient>
<linearGradient id="paint1_linear_1094_527" x1="1056.25" y1="1158" x2="1056.25" y2="1380.95" gradientUnits="userSpaceOnUse">
<stop stop-color="#70D7C7"/>
<stop offset="1" stop-color="#FFCB34"/>
</linearGradient>
<linearGradient id="paint2_linear_1094_527" x1="1211.1" y1="281.197" x2="1175.9" y2="501.347" gradientUnits="userSpaceOnUse">
<stop stop-color="#70D7C7"/>
<stop offset="1" stop-color="#FFCB34"/>
</linearGradient>
</defs>
</svg>
