<svg width="49" height="48" viewBox="0 0 49 48" fill="none" xmlns="http://www.w3.org/2000/svg">
<path d="M46.6208 14.5689L40.9504 20.2127C39.8238 33.3189 28.7459 43.5002 15.5088 43.5002C12.7863 43.5002 10.5331 43.0689 8.82451 42.2252C7.45386 41.5314 6.89057 40.8002 6.74037 40.5752C6.61609 40.3867 6.536 40.1726 6.50609 39.9489C6.47617 39.7252 6.49718 39.4976 6.56757 39.2832C6.63795 39.0687 6.75589 38.8729 6.9126 38.7102C7.0693 38.5476 7.26074 38.4224 7.47263 38.3439C7.51019 38.3252 11.9413 36.6377 14.8141 33.3939C13.0325 32.1272 11.4666 30.5824 10.1764 28.8189C7.60407 25.3314 4.88153 19.2752 6.51505 10.2377C6.5664 9.969 6.68946 9.71916 6.87123 9.51454C7.053 9.30992 7.28673 9.15812 7.54774 9.07518C7.80958 8.98956 8.08995 8.97751 8.35819 9.04034C8.62643 9.10317 8.8722 9.23847 9.0686 9.43143C9.12493 9.50643 15.3774 15.6564 23.0192 17.6439V16.5002C23.0266 15.3109 23.2685 14.1347 23.7311 13.0388C24.1936 11.9428 24.8679 10.9486 25.7152 10.1129C26.5626 9.27713 27.5665 8.61625 28.6696 8.16797C29.7727 7.71968 30.9535 7.49277 32.1444 7.50018C33.7075 7.52244 35.2381 7.94864 36.5872 8.73726C37.9363 9.52588 39.0579 10.65 39.8426 12.0002H45.5505C45.8471 11.9992 46.1373 12.086 46.3845 12.2495C46.6318 12.413 46.825 12.6459 46.9399 12.9189C47.0482 13.196 47.0756 13.498 47.0191 13.79C46.9626 14.082 46.8245 14.352 46.6208 14.5689Z" fill="black"/>
</svg>
