<svg width="49" height="48" viewBox="0 0 49 48" fill="none" xmlns="http://www.w3.org/2000/svg">
<path d="M24.4651 4.5C21.0738 4.49974 17.7409 5.38149 14.7945 7.05842C11.8481 8.73536 9.38987 11.1497 7.66179 14.0636C5.93372 16.9776 4.99539 20.2908 4.9392 23.6769C4.88302 27.0631 5.7109 30.4055 7.34134 33.375L5.74538 39C5.59649 39.5126 5.58813 40.0556 5.72114 40.5725C5.85416 41.0894 6.12369 41.5612 6.5016 41.9386C6.8795 42.316 7.35192 42.5851 7.86954 42.7179C8.38715 42.8508 8.93099 42.8424 9.44426 42.6937L15.0771 41.1C17.6875 42.5287 20.5905 43.3426 23.5641 43.4794C26.5377 43.6161 29.5033 43.0721 32.2342 41.889C34.965 40.7059 37.3889 38.915 39.3205 36.6531C41.252 34.3913 42.6402 31.7183 43.3788 28.8387C44.1175 25.959 44.1871 22.9488 43.5823 20.0381C42.9775 17.1275 41.7143 14.3934 39.8893 12.045C38.0643 9.69652 35.7258 7.79581 33.0525 6.48813C30.3792 5.18045 27.4419 4.50041 24.4651 4.5ZM28.9902 36H28.9714C24.5875 35.995 20.3849 34.2525 17.2868 31.1551C14.1886 28.0578 12.4484 23.859 12.4484 19.4813C12.4534 17.6943 13.1677 15.9822 14.4348 14.7204C15.7019 13.4586 17.4184 12.75 19.2078 12.75C19.6997 12.7511 20.1826 12.8816 20.6079 13.1285C21.0331 13.3754 21.3856 13.7299 21.6299 14.1562L23.8267 18C24.092 18.4603 24.2285 18.9834 24.2219 19.5145C24.2153 20.0456 24.0659 20.5651 23.7892 21.0187L22.4561 23.25C23.1264 24.3882 24.0764 25.3369 25.2162 26.0062L27.4505 24.675C27.9048 24.3987 28.425 24.2495 28.9569 24.2429C29.4887 24.2363 30.0125 24.3726 30.4735 24.6375L34.3226 26.8313C34.7495 27.0752 35.1045 27.4273 35.3517 27.8519C35.599 28.2766 35.7297 28.7588 35.7308 29.25C35.7308 31.037 35.0212 32.751 33.7576 34.0164C32.4941 35.2817 30.7796 35.995 28.9902 36Z" fill="black"/>
<path d="M26.0606 29.0062C25.8517 29.1282 25.6167 29.1987 25.375 29.2117C25.1334 29.2248 24.8921 29.18 24.6712 29.0813C22.3102 28.0362 20.4228 26.1515 19.3764 23.7938C19.2774 23.5732 19.2326 23.3322 19.2457 23.0909C19.2588 22.8496 19.3293 22.6149 19.4515 22.4062L21.2164 19.4813L19.0947 15.75C18.1201 15.7745 17.1937 16.1783 16.5131 16.8755C15.8326 17.5726 15.4519 18.5077 15.4522 19.4813C15.4497 21.2557 15.7975 23.0132 16.4758 24.6532C17.1541 26.2933 18.1495 27.7837 19.4051 29.0393C20.6607 30.2949 22.1518 31.291 23.7932 31.9706C25.4346 32.6502 27.194 33 28.9709 33H28.9897C29.9646 33.0003 30.901 32.6201 31.5991 31.9405C32.2972 31.2609 32.7017 30.3358 32.7262 29.3625L28.9897 27.2438L26.0606 29.0062Z" fill="black"/>
</svg>
